#N canvas 389 23 872 485 10;
#X declare -path abstractions;
#N canvas 674 186 534 395 patch 0;
#X obj 49 126 f \$0;
#X obj 49 146 list;
#X obj 49 107 t b a;
#X obj 49 88 zexy/list2symbol;
#X msg 50 165 \; \$1-title label \$2;
#X obj 12 182 f \$0;
#X msg 12 163 bang;
#X obj 12 45 loadbang;
#X msg 22 276 \; \$1-title color 11 13;
#X obj 436 121 + 1;
#X obj 406 121 f 0;
#X msg 421 100 0;
#X obj 363 44 pdmus/midi-sync;
#X obj 363 65 sel 0;
#X obj 406 166 s numberz32;
#X obj 421 144 sel 31;
#X text 8 354 daniel.gomez@upf.edu;
#X msg 38 210 \; \$1-title label_font 3 20;
#X msg 49 68 MARKOV DRUMS;
#X msg 12 310 \; \$1-title label_pos 20 18;
#X msg 30 243 \; \$1-title vis_size 870 480;
#X text 364 22 angel:;
#N canvas 18 29 1217 666 midi-control 0;
#X obj 49 201 makenote;
#X msg 49 176 \$1 127 100;
#X msg 10 37 36;
#X text 123 209 to drum machine;
#X obj 10 15 r playk;
#X obj 62 15 r plays;
#X obj 226 14 r playch;
#X obj 284 14 r playoh;
#X obj 169 14 r playcp;
#X obj 112 15 r playrs;
#X msg 112 37 37;
#X msg 62 37 38;
#X msg 169 34 39;
#X msg 205 121 40;
#X msg 205 144 41;
#X msg 226 36 42;
#X msg 284 37 46;
#X obj 49 225 noteout 10;
#X text 119 228 I changed to channel 10!;
#X msg 152 452 2 17;
#X obj 46 452 pdmus/midi-learn;
#X msg 1081 73 12 17;
#X obj 975 73 pdmus/midi-learn;
#X obj 975 94 / 64;
#X obj 975 114 int;
#X obj 948 52 t b f;
#X obj 948 197 s \$0-save-state;
#X obj 19 431 t b f;
#X obj 19 517 s \$0-save-state;
#X msg 49 273 save;
#X obj 49 252 r \$0-save-state;
#X obj 49 294 s pd-\$0-Dr.Markov.pd;
#X msg 343 241 0;
#X msg 359 264 0.5;
#X msg 529 225 0;
#X obj 848 27 loadbang;
#X obj 848 49 delay 1000;
#X obj 529 157 r zero-ag;
#X obj 563 282 s ag-kick-in;
#X obj 556 304 s ag-snare-in;
#X obj 550 326 s ag-ch-in;
#X obj 570 261 s ag-oh-in;
#X obj 540 348 s ag-cp-in;
#X obj 529 367 s ag-rs-in;
#X obj 343 219 r zero-dws;
#X obj 351 312 s comm;
#X obj 343 334 s den;
#X obj 359 287 s sync;
#X obj 948 30 r \$0-learn-density-center;
#X obj 975 175 s set-zero-ag;
#X msg 477 56 11 17;
#X obj 371 56 pdmus/midi-learn;
#X obj 371 77 / 64;
#X obj 371 97 int;
#X obj 344 35 t b f;
#X obj 344 183 s \$0-save-state;
#X obj 344 13 r \$0-learn-commonness-center;
#X obj 371 158 s set-zero-dws;
#X obj 46 474 maxlib/scale 0 127 -1 1;
#X msg 344 454 3 17;
#X obj 238 454 pdmus/midi-learn;
#X obj 211 433 t b f;
#X obj 211 519 s \$0-save-state;
#X obj 238 476 maxlib/scale 0 127 -1 1;
#X msg 537 451 4 17;
#X obj 431 451 pdmus/midi-learn;
#X obj 404 430 t b f;
#X obj 404 516 s \$0-save-state;
#X obj 431 473 maxlib/scale 0 127 -1 1;
#X msg 729 453 5 17;
#X obj 623 453 pdmus/midi-learn;
#X obj 596 432 t b f;
#X obj 596 518 s \$0-save-state;
#X obj 623 475 maxlib/scale 0 127 -1 1;
#X msg 914 451 6 17;
#X obj 808 451 pdmus/midi-learn;
#X obj 781 430 t b f;
#X obj 781 516 s \$0-save-state;
#X obj 808 473 maxlib/scale 0 127 -1 1;
#X msg 1106 453 7 17;
#X obj 1000 453 pdmus/midi-learn;
#X obj 973 432 t b f;
#X obj 973 518 s \$0-save-state;
#X obj 1000 475 maxlib/scale 0 127 -1 1;
#X obj 973 410 r \$0-learn-density-rs;
#X obj 1000 495 s ag-rs-in;
#X obj 19 409 r \$0-learn-density-k;
#X obj 211 411 r \$0-learn-density-s;
#X obj 404 408 r \$0-learn-density-ch;
#X obj 596 410 r \$0-learn-density-oh;
#X obj 781 408 r \$0-learn-density-cp;
#X obj 46 494 s ag-kick-in;
#X obj 238 496 s ag-snare-in;
#X obj 431 493 s ag-ch-in;
#X obj 623 495 s ag-oh-in;
#X obj 808 493 s ag-cp-in;
#X msg 660 56 1 17;
#X obj 554 56 pdmus/midi-learn;
#X obj 527 35 t b f;
#X obj 527 121 s \$0-save-state;
#X obj 554 78 maxlib/scale 0 127 -1 1;
#X obj 527 13 r \$0-learn-commonness;
#X obj 554 98 s comm;
#X obj 371 137 sel 1;
#X obj 975 154 sel 1;
#X obj 371 117 change;
#X obj 975 134 change;
#X obj 736 142 ctlout;
#X msg 799 96 1 17;
#X obj 735 22 r zero-dws;
#X obj 735 44 t b b;
#X msg 735 98 64;
#X obj 736 118 list append;
#X obj 119 608 ctlout;
#X msg 182 562 2 17;
#X obj 118 540 t b b;
#X msg 118 564 64;
#X obj 119 584 list append;
#X obj 118 518 r zero-ag;
#X obj 858 73 s zero-ag;
#X obj 309 608 ctlout;
#X msg 372 562 3 17;
#X obj 308 540 t b b;
#X msg 308 564 64;
#X obj 309 584 list append;
#X obj 308 518 r zero-ag;
#X obj 509 608 ctlout;
#X msg 572 562 4 17;
#X obj 508 540 t b b;
#X msg 508 564 64;
#X obj 509 584 list append;
#X obj 508 518 r zero-ag;
#X obj 699 608 ctlout;
#X msg 762 562 5 17;
#X obj 698 540 t b b;
#X msg 698 564 64;
#X obj 699 584 list append;
#X obj 698 518 r zero-ag;
#X obj 889 608 ctlout;
#X msg 952 562 6 17;
#X obj 888 540 t b b;
#X msg 888 564 64;
#X obj 889 584 list append;
#X obj 888 518 r zero-ag;
#X obj 1079 608 ctlout;
#X msg 1142 562 7 17;
#X obj 1078 540 t b b;
#X msg 1078 564 64;
#X obj 1079 584 list append;
#X obj 1078 518 r zero-ag;
#X obj 848 93 s zero-dws;
#X connect 0 0 17 0;
#X connect 0 1 17 1;
#X connect 1 0 0 0;
#X connect 2 0 1 0;
#X connect 4 0 2 0;
#X connect 5 0 11 0;
#X connect 6 0 15 0;
#X connect 7 0 16 0;
#X connect 8 0 12 0;
#X connect 9 0 10 0;
#X connect 10 0 1 0;
#X connect 11 0 1 0;
#X connect 12 0 1 0;
#X connect 13 0 1 0;
#X connect 14 0 1 0;
#X connect 15 0 1 0;
#X connect 16 0 1 0;
#X connect 19 0 20 1;
#X connect 20 0 58 0;
#X connect 20 1 19 0;
#X connect 20 1 114 0;
#X connect 21 0 22 1;
#X connect 22 0 23 0;
#X connect 22 1 21 0;
#X connect 23 0 24 0;
#X connect 24 0 106 0;
#X connect 25 0 26 0;
#X connect 25 1 22 0;
#X connect 27 0 28 0;
#X connect 27 1 20 0;
#X connect 29 0 31 0;
#X connect 30 0 29 0;
#X connect 32 0 33 0;
#X connect 32 0 45 0;
#X connect 32 0 46 0;
#X connect 33 0 47 0;
#X connect 34 0 38 0;
#X connect 34 0 39 0;
#X connect 34 0 40 0;
#X connect 34 0 41 0;
#X connect 34 0 42 0;
#X connect 34 0 43 0;
#X connect 35 0 36 0;
#X connect 36 0 119 0;
#X connect 36 0 150 0;
#X connect 37 0 34 0;
#X connect 44 0 32 0;
#X connect 48 0 25 0;
#X connect 50 0 51 1;
#X connect 51 0 52 0;
#X connect 51 1 50 0;
#X connect 52 0 53 0;
#X connect 53 0 105 0;
#X connect 54 0 55 0;
#X connect 54 1 51 0;
#X connect 56 0 54 0;
#X connect 58 0 91 0;
#X connect 59 0 60 1;
#X connect 60 0 63 0;
#X connect 60 1 59 0;
#X connect 60 1 121 0;
#X connect 61 0 62 0;
#X connect 61 1 60 0;
#X connect 63 0 92 0;
#X connect 64 0 65 1;
#X connect 65 0 68 0;
#X connect 65 1 64 0;
#X connect 65 1 127 0;
#X connect 66 0 67 0;
#X connect 66 1 65 0;
#X connect 68 0 93 0;
#X connect 69 0 70 1;
#X connect 70 0 73 0;
#X connect 70 1 69 0;
#X connect 70 1 133 0;
#X connect 71 0 72 0;
#X connect 71 1 70 0;
#X connect 73 0 94 0;
#X connect 74 0 75 1;
#X connect 75 0 78 0;
#X connect 75 1 74 0;
#X connect 75 1 139 0;
#X connect 76 0 77 0;
#X connect 76 1 75 0;
#X connect 78 0 95 0;
#X connect 79 0 80 1;
#X connect 80 0 83 0;
#X connect 80 1 79 0;
#X connect 80 1 145 0;
#X connect 81 0 82 0;
#X connect 81 1 80 0;
#X connect 83 0 85 0;
#X connect 84 0 81 0;
#X connect 86 0 27 0;
#X connect 87 0 61 0;
#X connect 88 0 66 0;
#X connect 89 0 71 0;
#X connect 90 0 76 0;
#X connect 96 0 97 1;
#X connect 97 0 100 0;
#X connect 97 1 96 0;
#X connect 97 1 108 0;
#X connect 98 0 99 0;
#X connect 98 1 97 0;
#X connect 100 0 102 0;
#X connect 101 0 98 0;
#X connect 103 0 57 0;
#X connect 104 0 49 0;
#X connect 105 0 103 0;
#X connect 106 0 104 0;
#X connect 108 0 112 1;
#X connect 109 0 110 0;
#X connect 110 0 111 0;
#X connect 110 1 108 0;
#X connect 111 0 112 0;
#X connect 112 0 107 0;
#X connect 114 0 117 1;
#X connect 115 0 116 0;
#X connect 115 1 114 0;
#X connect 116 0 117 0;
#X connect 117 0 113 0;
#X connect 118 0 115 0;
#X connect 121 0 124 1;
#X connect 122 0 123 0;
#X connect 122 1 121 0;
#X connect 123 0 124 0;
#X connect 124 0 120 0;
#X connect 125 0 122 0;
#X connect 127 0 130 1;
#X connect 128 0 129 0;
#X connect 128 1 127 0;
#X connect 129 0 130 0;
#X connect 130 0 126 0;
#X connect 131 0 128 0;
#X connect 133 0 136 1;
#X connect 134 0 135 0;
#X connect 134 1 133 0;
#X connect 135 0 136 0;
#X connect 136 0 132 0;
#X connect 137 0 134 0;
#X connect 139 0 142 1;
#X connect 140 0 141 0;
#X connect 140 1 139 0;
#X connect 141 0 142 0;
#X connect 142 0 138 0;
#X connect 143 0 140 0;
#X connect 145 0 148 1;
#X connect 146 0 147 0;
#X connect 146 1 145 0;
#X connect 147 0 148 0;
#X connect 148 0 144 0;
#X connect 149 0 146 0;
#X restore 354 203 pd midi-control;
#N canvas 0 128 709 379 midi-unused 0;
#X obj 49 64 ctlin 29;
#X obj 55 102 list prepend;
#X obj 73 276 s den;
#X obj 92 195 s sync;
#X obj 73 228 / 127;
#X obj 92 175 / 127;
#X obj 198 127 notein 1;
#X obj 198 148 pack;
#X obj 198 167 route 107;
#X obj 190 223 sel 127;
#X obj 213 276 s st;
#X obj 198 189 change;
#X obj 347 120 notein 1;
#X obj 347 141 pack;
#X obj 347 160 route 111;
#X obj 347 200 sel 127;
#X obj 347 180 change;
#X obj 345 235 s cng;
#X obj 483 15 notein 1;
#X obj 483 34 pack;
#X obj 485 105 sel 127;
#X obj 485 73 change;
#X obj 483 53 route 108;
#X obj 486 162 notein 1;
#X obj 486 181 pack;
#X obj 488 252 sel 127;
#X obj 488 220 change;
#X obj 486 200 route 106;
#X obj 485 132 s prv;
#X obj 488 279 s nxt;
#X obj 55 144 route 1 2 3 4;
#X obj 142 175 / 127;
#X obj 142 197 * 100;
#X obj 142 220 + 60;
#X obj 139 270 s bp;
#X obj 587 147 notein 1;
#X obj 587 166 pack;
#X obj 587 232 sel 127;
#X obj 587 208 change;
#X obj 587 185 route 110;
#X obj 587 272 s tp;
#X connect 5 0 3 0;
#X connect 6 0 7 0;
#X connect 6 1 7 1;
#X connect 7 0 8 0;
#X connect 8 0 11 0;
#X connect 11 0 9 0;
#X connect 12 0 13 0;
#X connect 12 1 13 1;
#X connect 13 0 14 0;
#X connect 14 0 16 0;
#X connect 16 0 15 0;
#X connect 18 0 19 0;
#X connect 18 1 19 1;
#X connect 19 0 22 0;
#X connect 21 0 20 0;
#X connect 22 0 21 0;
#X connect 23 0 24 0;
#X connect 23 1 24 1;
#X connect 24 0 27 0;
#X connect 26 0 25 0;
#X connect 27 0 26 0;
#X connect 30 1 4 0;
#X connect 30 2 5 0;
#X connect 30 3 31 0;
#X connect 31 0 32 0;
#X connect 32 0 33 0;
#X connect 35 0 36 0;
#X connect 35 1 36 1;
#X connect 36 0 39 0;
#X connect 38 0 37 0;
#X connect 39 0 38 0;
#X restore 353 224 pd midi-unused;
#N canvas 0 128 337 245 sound-engine 1;
#N canvas 117 142 450 420 samples 1;
#X obj 118 54 loadbang;
#X obj 75 322 soundfiler;
#X obj 185 97 table k;
#X obj 206 142 table s;
#X obj 216 193 table o;
#X obj 241 238 table c;
#X obj 223 297 table cp;
#X obj 232 348 table rs;
#X msg 118 77 read -resize samples909/kick.wav k;
#X msg 139 122 read -resize samples909/snare.wav s;
#X msg 149 173 read -resize samples909/oh.wav o;
#X msg 174 218 read -resize samples909/ch.wav c;
#X msg 156 276 read -resize samples909/cp.wav cp;
#X msg 165 328 read -resize samples909/rs.wav rs;
#X connect 0 0 8 0;
#X connect 0 0 9 0;
#X connect 0 0 10 0;
#X connect 0 0 11 0;
#X connect 0 0 12 0;
#X connect 0 0 13 0;
#X connect 8 0 1 0;
#X connect 9 0 1 0;
#X connect 10 0 1 0;
#X connect 11 0 1 0;
#X connect 12 0 1 0;
#X connect 13 0 1 0;
#X restore 75 25 pd samples;
#X obj 13 25 loadbang;
#N canvas 512 117 643 300 pace 0;
#X obj 111 -127 f;
#X obj 155 -126 + 1;
#X obj 111 -180 t f f;
#X obj 171 -163 sel 1;
#X msg 171 -144 0;
#X obj 111 -160 metro 100;
#X obj 33 -40 s numberz16;
#X obj 33 -60 % 16;
#X obj 111 -263 r start-drumz;
#X obj 234 -241 r bpm;
#X obj 111 -103 t f f;
#X obj 340 -102 t b f;
#X obj 234 -195 + 0;
#X obj 421 -140 t f f;
#X obj 447 -106 * -1;
#X obj 340 -189 % 8;
#X obj 340 -162 moses 4;
#X obj 385 -142 - 4;
#X obj 340 -130 *;
#X obj 385 -123 *;
#X obj 111 -77 % 32;
#X obj 111 -15 outlet;
#X obj 421 -163 inlet;
#X obj 138 -36 s numberz32;
#X obj 111 -58 t f f;
#N canvas 0 50 450 300 bmp 0;
#X obj 129 32 inlet;
#X obj 129 123 t b f;
#X msg 129 145 15000;
#X obj 207 155 / 240;
#X obj 207 180 outlet;
#X obj 141 189 outlet;
#X obj 141 168 /;
#X connect 0 0 3 0;
#X connect 0 0 1 0;
#X connect 1 0 2 0;
#X connect 1 1 6 1;
#X connect 2 0 6 0;
#X connect 3 0 4 0;
#X connect 6 0 5 0;
#X restore 234 -221 pd bmp;
#X connect 0 0 1 0;
#X connect 0 0 10 0;
#X connect 1 0 0 1;
#X connect 2 0 5 0;
#X connect 2 1 3 0;
#X connect 3 0 4 0;
#X connect 4 0 0 1;
#X connect 5 0 0 0;
#X connect 7 0 6 0;
#X connect 8 0 2 0;
#X connect 9 0 25 0;
#X connect 10 0 7 0;
#X connect 10 0 20 0;
#X connect 10 1 15 0;
#X connect 11 0 12 0;
#X connect 11 1 12 1;
#X connect 12 0 5 1;
#X connect 13 0 19 1;
#X connect 13 1 14 0;
#X connect 14 0 18 1;
#X connect 15 0 16 0;
#X connect 16 0 18 0;
#X connect 16 1 17 0;
#X connect 17 0 19 0;
#X connect 18 0 11 0;
#X connect 19 0 11 0;
#X connect 20 0 24 0;
#X connect 22 0 13 0;
#X connect 24 0 21 0;
#X connect 24 1 23 0;
#X connect 25 0 12 0;
#X restore 103 153 pd pace;
#N canvas 90 222 1043 549 patt2sound 0;
#X obj 89 167 tabplay~ k;
#X obj 89 134 sel 1;
#X obj 169 150 sel 1;
#X obj 169 170 tabplay~ s;
#X obj 253 150 sel 1;
#X obj 253 196 tabplay~ c;
#X obj 343 149 sel 1;
#X obj 343 192 tabplay~ o;
#X obj 169 190 *~ 0.8;
#X obj 253 216 *~ 0.7;
#X obj 343 212 *~ 0.5;
#X obj 343 169 t b b;
#X obj 253 170 t b b;
#X msg 416 190 0;
#X obj 343 330 throw~ drums;
#X obj 239 410 catch~ drums;
#X obj 245 520 dac~;
#X obj 344 306 *~;
#X obj 253 328 throw~ drums;
#X obj 254 306 *~;
#X obj 167 336 throw~ drums;
#X obj 168 306 *~;
#X obj 88 337 throw~ drums;
#X obj 89 306 *~;
#X obj 729 62 t b b b b;
#X obj 699 176 random 100;
#X obj 699 197 / 100;
#X obj 699 219 - 1;
#X obj 698 240 abs;
#X obj 768 176 random 100;
#X obj 768 197 / 100;
#X obj 768 219 - 1;
#X obj 767 240 abs;
#X obj 841 174 random 100;
#X obj 841 195 / 100;
#X obj 841 217 - 1;
#X obj 840 238 abs;
#X obj 910 174 random 100;
#X obj 910 195 / 100;
#X obj 910 217 - 1;
#X obj 909 238 abs;
#X obj 900 21 vsl 15 128 0 100 0 1 empty empty empty 0 -9 0 10 -262144
-1 -1 2600 1;
#X obj 228 489 freeverb~;
#X msg 401 450 dry 1;
#X obj 412 412 loadbang;
#X obj 236 452 *~ 0.7;
#X msg 501 450 damping 1;
#X obj 698 267 pack f 2;
#X obj 698 288 line~;
#X obj 767 267 pack f 2;
#X obj 767 289 line~;
#X obj 838 262 pack f 2;
#X obj 838 289 line~;
#X obj 907 262 pack f 2;
#X obj 907 289 line~;
#X text 675 12 randomize hit strength->;
#X obj 89 114 tabread kick;
#X obj 169 114 tabread snare;
#X obj 253 114 tabread chihat;
#X obj 343 114 tabread ohihat;
#X obj 293 15 inlet;
#X obj 9 171 s playk;
#X obj 10 192 s plays;
#X obj 14 217 s playch;
#X obj 14 244 s playoh;
#X obj 479 147 sel 1;
#X obj 479 328 throw~ drums;
#X obj 418 62 t f f f f f f f f;
#X obj 479 190 tabplay~ cp;
#X obj 479 112 tabread clap;
#X obj 559 147 sel 1;
#X obj 559 210 *~ 0.5;
#X obj 559 167 t b b;
#X obj 559 328 throw~ drums;
#X obj 559 112 tabread rimshot;
#X obj 559 190 tabplay~ rs;
#X msg 445 449 wet 0.01;
#X msg 314 454 roomsize 0.8;
#X obj 479 211 *~ 0.55;
#X msg 479 168 0 15000;
#X obj 154 412 r \$0-volume;
#X obj 170 452 *~;
#X obj 23 283 s playcp;
#X obj 24 310 s playrs;
#X msg 446 189 0.4;
#X connect 0 0 23 0;
#X connect 1 0 0 0;
#X connect 1 0 61 0;
#X connect 2 0 3 0;
#X connect 2 0 62 0;
#X connect 3 0 8 0;
#X connect 4 0 12 0;
#X connect 4 0 63 0;
#X connect 5 0 9 0;
#X connect 6 0 11 0;
#X connect 6 0 64 0;
#X connect 7 0 10 0;
#X connect 8 0 21 0;
#X connect 9 0 19 0;
#X connect 10 0 17 0;
#X connect 11 0 7 0;
#X connect 11 1 84 0;
#X connect 12 0 5 0;
#X connect 12 1 13 0;
#X connect 13 0 10 1;
#X connect 15 0 81 0;
#X connect 17 0 14 0;
#X connect 19 0 18 0;
#X connect 21 0 20 0;
#X connect 23 0 22 0;
#X connect 24 0 25 0;
#X connect 24 1 29 0;
#X connect 24 2 33 0;
#X connect 24 3 37 0;
#X connect 25 0 26 0;
#X connect 26 0 27 0;
#X connect 27 0 28 0;
#X connect 28 0 47 0;
#X connect 29 0 30 0;
#X connect 30 0 31 0;
#X connect 31 0 32 0;
#X connect 32 0 49 0;
#X connect 33 0 34 0;
#X connect 34 0 35 0;
#X connect 35 0 36 0;
#X connect 36 0 51 0;
#X connect 37 0 38 0;
#X connect 38 0 39 0;
#X connect 39 0 40 0;
#X connect 40 0 53 0;
#X connect 41 0 25 1;
#X connect 41 0 29 1;
#X connect 41 0 37 1;
#X connect 42 0 16 0;
#X connect 42 1 16 1;
#X connect 43 0 42 0;
#X connect 44 0 77 0;
#X connect 44 0 43 0;
#X connect 44 0 76 0;
#X connect 44 0 46 0;
#X connect 45 0 42 0;
#X connect 45 0 42 1;
#X connect 46 0 42 0;
#X connect 47 0 48 0;
#X connect 48 0 23 1;
#X connect 49 0 50 0;
#X connect 50 0 21 1;
#X connect 51 0 52 0;
#X connect 52 0 19 1;
#X connect 53 0 54 0;
#X connect 54 0 17 1;
#X connect 56 0 1 0;
#X connect 57 0 2 0;
#X connect 58 0 4 0;
#X connect 59 0 6 0;
#X connect 60 0 24 0;
#X connect 60 0 67 0;
#X connect 65 0 79 0;
#X connect 65 0 82 0;
#X connect 67 0 56 0;
#X connect 67 1 57 0;
#X connect 67 2 58 0;
#X connect 67 3 59 0;
#X connect 67 4 69 0;
#X connect 67 5 74 0;
#X connect 68 0 78 0;
#X connect 69 0 65 0;
#X connect 70 0 72 0;
#X connect 70 0 83 0;
#X connect 71 0 73 0;
#X connect 72 0 75 0;
#X connect 74 0 70 0;
#X connect 75 0 71 0;
#X connect 76 0 42 0;
#X connect 77 0 42 0;
#X connect 78 0 66 0;
#X connect 79 0 68 0;
#X connect 80 0 81 1;
#X connect 81 0 45 0;
#X connect 84 0 10 1;
#X restore 18 153 pd patt2sound;
#X obj 18 134 r numberz32;
#X text 16 108 Playback;
#X obj 106 135 hsl 70 15 0 5 0 0 empty empty groove 15 7 0 10 -262144
-1 -1 0 1;
#X msg 13 48 \; pd dsp 0;
#X connect 1 0 7 0;
#X connect 4 0 3 0;
#X connect 6 0 2 0;
#X restore 355 266 pd sound-engine (disabled);
#X obj 8 12 declare -path abstractions;
#N canvas 0 23 1217 697 markov-magic 0;
#N canvas 367 50 842 688 search 0;
#X obj 288 195 cyclone/coll \$0-knowledge;
#C restore;
#N canvas 297 275 562 451 element2list 0;
#X obj 103 145 zexy/symbol2list;
#X msg 118 126 symbol;
#X obj 118 107 loadbang;
#X obj 103 166 list split 2;
#X obj 103 185 t b a;
#X obj 130 260 zexy/list2symbol;
#X obj 145 222 loadbang;
#X msg 145 241 symbol;
#X obj 144 202 list;
#X obj 304 329 list;
#X obj 84 352 list;
#X obj 84 33 t b a b;
#X obj 280 297 list prepend;
#X obj 84 11 inlet;
#X obj 84 387 outlet;
#X text 199 99 Convert a wrapped element of the knowledge database
into its elements.;
#X connect 0 0 3 0;
#X connect 1 0 0 1;
#X connect 2 0 1 0;
#X connect 3 0 4 0;
#X connect 3 1 8 1;
#X connect 4 0 8 0;
#X connect 4 1 5 0;
#X connect 5 0 12 0;
#X connect 6 0 7 0;
#X connect 7 0 5 1;
#X connect 8 0 3 0;
#X connect 9 0 12 1;
#X connect 10 0 14 0;
#X connect 11 0 10 0;
#X connect 11 1 0 0;
#X connect 11 2 12 1;
#X connect 11 2 10 1;
#X connect 12 0 9 0;
#X connect 12 0 10 1;
#X connect 13 0 11 0;
#X restore 288 233 pd element2list;
#N canvas 423 460 450 300 drip 0;
#X obj 32 51 inlet;
#X obj 45 179 outlet;
#X obj 44 90 list split 1;
#X obj 43 116 t b a;
#X obj 83 140 list;
#X connect 0 0 2 0;
#X connect 2 0 3 0;
#X connect 2 1 4 1;
#X connect 3 0 4 0;
#X connect 3 1 1 0;
#X connect 4 0 2 0;
#X restore 288 214 pd drip;
#X obj 107 272 tabread \$0-ran32;
#X obj 201 501 list prepend;
#X obj 409 195 t a a;
#N canvas 487 431 450 300 makelist 0;
#X obj 241 28 inlet values;
#X obj 52 29 inlet bang to output and reset;
#X obj 241 184 list;
#X obj 262 103 loadbang;
#X msg 262 127 bang;
#X obj 272 184 list;
#X obj 79 201 list;
#X obj 52 77 t b b;
#X obj 79 246 outlet;
#X obj 79 223 list trim;
#X connect 0 0 2 0;
#X connect 1 0 7 0;
#X connect 2 0 5 0;
#X connect 2 0 6 1;
#X connect 3 0 4 0;
#X connect 4 0 2 1;
#X connect 4 0 6 1;
#X connect 5 0 2 1;
#X connect 6 0 9 0;
#X connect 7 0 4 0;
#X connect 7 1 6 0;
#X connect 9 0 8 0;
#X restore 225 272 pd makelist;
#X obj 225 395 route bang;
#N canvas 249 72 372 542 probs2element 0;
#X obj 37 352 zexy/sum;
#X obj 37 276 list;
#X obj 37 331 list split;
#X obj 37 240 t b b;
#X obj 94 271 f;
#X obj 125 271 + 1;
#X msg 109 243 0;
#X obj 37 210 until;
#X obj 37 162 t a a b;
#X obj 218 455 f;
#X obj 94 311 t f f;
#X obj 218 407 sel 1;
#X obj 37 82 t b f;
#X obj 37 143 list;
#X obj 218 385 >=;
#X obj 218 431 t b b;
#X obj 158 53 inlet probabilities;
#X obj 37 53 inlet random number;
#X obj 218 509 outlet selected class;
#X text 17 8 input a list of probabilities and a random number and
output an element from the list.;
#X obj 94 291 + 1;
#X obj 218 481 - 1;
#X msg 37 186 256;
#X connect 0 0 14 0;
#X connect 1 0 2 0;
#X connect 2 0 0 0;
#X connect 3 0 1 0;
#X connect 3 1 4 0;
#X connect 4 0 5 0;
#X connect 4 0 20 0;
#X connect 5 0 4 1;
#X connect 6 0 4 1;
#X connect 7 0 3 0;
#X connect 8 0 22 0;
#X connect 8 1 1 1;
#X connect 8 2 6 0;
#X connect 9 0 21 0;
#X connect 10 0 2 1;
#X connect 10 1 9 1;
#X connect 11 0 15 0;
#X connect 12 0 13 0;
#X connect 12 1 14 1;
#X connect 13 0 8 0;
#X connect 14 0 11 0;
#X connect 15 0 9 0;
#X connect 15 1 7 1;
#X connect 16 0 13 1;
#X connect 17 0 12 0;
#X connect 20 0 10 0;
#X connect 21 0 18 0;
#X connect 22 0 7 0;
#X restore 107 458 pd probs2element;
#N canvas 576 207 457 400 refine 0;
#X obj 66 237 list split;
#X obj 66 177 t a a;
#X obj 102 197 list length;
#X obj 102 216 - 1;
#X obj 138 263 zexy/list2symbol;
#X obj 156 220 loadbang;
#X msg 156 240 symbol _;
#X msg 138 282 symbol _\$1;
#X obj 66 329 symbol;
#X obj 100 24 inlet list of elements;
#X obj 221 266 inlet past;
#X obj 33 361 outlet;
#X obj 33 24 r \$0-order;
#X obj 31 43 != 0;
#X obj 31 62 + 1;
#X text 122 99 Note: if the order is 0 bypass this object because there
is no past. If the order is higher then use the code below.;
#X obj 66 309 sel xx;
#X obj 221 287 zexy/list2symbol;
#X obj 66 289 zexy/list2symbol;
#X obj 13 95 cyclone/gate 2 1;
#X connect 0 0 4 0;
#X connect 0 0 18 0;
#X connect 0 1 8 1;
#X connect 1 0 0 0;
#X connect 1 1 2 0;
#X connect 2 0 3 0;
#X connect 3 0 0 1;
#X connect 4 0 7 0;
#X connect 5 0 6 0;
#X connect 6 0 4 1;
#X connect 8 0 11 0;
#X connect 9 0 19 1;
#X connect 10 0 17 0;
#X connect 12 0 13 0;
#X connect 13 0 14 0;
#X connect 14 0 19 0;
#X connect 16 0 8 0;
#X connect 17 0 16 1;
#X connect 18 0 16 0;
#X connect 19 0 11 0;
#X connect 19 1 1 0;
#X restore 288 252 pd refine list;
#X obj 482 605 outlet zfs;
#N canvas 403 438 450 300 split 0;
#X obj 130 77 t a a;
#X obj 187 94 list length;
#X obj 130 132 list split;
#X obj 187 113 - 1;
#X obj 130 47 inlet;
#X obj 94 163 list trim;
#X text 164 45 a list with past and now;
#X obj 186 186 outlet now;
#X obj 94 186 outlet past;
#X connect 0 0 2 0;
#X connect 0 1 1 0;
#X connect 1 0 3 0;
#X connect 2 0 5 0;
#X connect 2 1 7 0;
#X connect 3 0 2 1;
#X connect 4 0 0 0;
#X connect 5 0 8 0;
#X restore 201 523 pd split past now;
#N canvas 311 397 450 300 define 0;
#X obj 37 26 inlet previous past;
#X obj 201 27 inlet previous now;
#X obj 71 179 outlet new past;
#X obj 37 89 list split 1;
#X obj 71 123 list;
#X obj 71 150 list trim;
#X connect 0 0 3 0;
#X connect 1 0 4 1;
#X connect 3 1 4 0;
#X connect 4 0 5 0;
#X connect 5 0 2 0;
#X restore 201 562 pd define new past;
#X obj 315 661 outlet now;
#X obj 665 579 t a;
#N canvas 179 159 709 346 generate 0;
#X msg 72 62 32;
#X obj 72 113 until;
#X obj 72 133 random 1000;
#X obj 72 154 * 0.001;
#X obj 161 192 f;
#X obj 188 193 + 1;
#X obj 72 81 t f b;
#X msg 160 105 0;
#X obj 72 175 t f b;
#X obj 72 225 tabwrite \$0-ran32;
#N canvas 0 69 450 300 (subpatch) 0;
#X array \$0-ran32 32 float 0;
#X coords 0 1 31 0 256 50 1 0 0;
#X restore 236 128 graph;
#X obj 88 39 inlet;
#X connect 0 0 6 0;
#X connect 1 0 2 0;
#X connect 2 0 3 0;
#X connect 3 0 8 0;
#X connect 4 0 5 0;
#X connect 4 0 9 1;
#X connect 5 0 4 1;
#X connect 6 0 1 0;
#X connect 6 1 7 0;
#X connect 7 0 4 1;
#X connect 8 0 9 0;
#X connect 8 1 4 0;
#X connect 11 0 0 0;
#X restore 417 56 pd generate new random list;
#N canvas 463 136 783 482 create 0;
#X obj 52 26 inlet;
#N canvas 423 460 450 300 drip 0;
#X obj 32 51 inlet;
#X obj 45 179 outlet;
#X obj 44 90 list split 1;
#X obj 43 116 t b a;
#X obj 83 140 list;
#X connect 0 0 2 0;
#X connect 2 0 3 0;
#X connect 2 1 4 1;
#X connect 3 0 4 0;
#X connect 3 1 1 0;
#X connect 4 0 2 0;
#X restore 71 152 pd drip;
#N canvas 380 300 450 300 packel 0;
#X obj 314 28 inlet list;
#X obj 121 27 inlet element;
#X obj 93 115 list split;
#X obj 121 139 list split 1;
#X obj 121 171 outlet;
#X obj 121 49 - 1;
#X obj 157 69 t b f;
#X obj 157 92 list;
#X connect 0 0 7 1;
#X connect 1 0 5 0;
#X connect 2 1 3 0;
#X connect 3 0 4 0;
#X connect 5 0 2 1;
#X connect 5 0 6 0;
#X connect 6 0 7 0;
#X connect 7 0 2 0;
#X restore 71 299 pd packel;
#N canvas 370 295 644 371 insert 0;
#X obj 180 167 list split;
#X obj 180 129 list;
#X obj 180 102 t b f;
#X obj 21 30 inlet value;
#X obj 425 41 inlet list;
#X obj 197 40 inlet index;
#X obj 208 212 list split 1;
#X obj 221 293 list;
#X msg 209 234 bang;
#X obj 210 261 f;
#X obj 180 316 list;
#X obj 180 342 outlet;
#X obj 21 64 t b f;
#X obj 182 81 f;
#X text 4 13 value that we want to insert;
#X text 184 23 index where we want to insert value;
#X text 429 23 list where we want to transform;
#X connect 0 0 10 0;
#X connect 0 1 6 0;
#X connect 1 0 0 0;
#X connect 2 0 1 0;
#X connect 2 1 0 1;
#X connect 3 0 12 0;
#X connect 4 0 1 1;
#X connect 5 0 13 1;
#X connect 6 0 8 0;
#X connect 6 1 7 1;
#X connect 7 0 10 1;
#X connect 8 0 9 0;
#X connect 9 0 7 0;
#X connect 10 0 11 0;
#X connect 12 0 13 0;
#X connect 12 1 9 1;
#X connect 13 0 2 0;
#X restore 71 386 pd insert in package;
#X obj 161 282 t a a;
#X obj 71 280 t f f;
#X obj 50 459 outlet;
#X obj 50 416 list;
#X obj 23 315 t b b;
#N canvas 440 464 450 300 normalize 0;
#X obj 43 13 inlet list;
#X obj 43 36 t b a a;
#X obj 204 138 zexy/sum;
#X obj 68 86 list split 1;
#X obj 120 127 list;
#X obj 68 109 t b f;
#X obj 95 178 /;
#N canvas 544 469 450 300 makelist 0;
#X obj 241 28 inlet values;
#X obj 52 29 inlet bang to output and reset;
#X obj 321 90 loadbang;
#X msg 321 112 bang;
#X obj 175 145 list;
#X obj 74 202 list;
#X obj 69 74 t b b;
#X obj 73 247 outlet;
#X obj 147 115 list prepend;
#X connect 0 0 8 0;
#X connect 1 0 6 0;
#X connect 2 0 3 0;
#X connect 3 0 5 1;
#X connect 3 0 8 1;
#X connect 4 0 8 1;
#X connect 5 0 7 0;
#X connect 6 0 3 0;
#X connect 6 1 5 0;
#X connect 8 0 4 0;
#X connect 8 0 5 1;
#X restore 43 222 pd makelist;
#X obj 46 252 outlet;
#X connect 0 0 1 0;
#X connect 1 0 7 0;
#X connect 1 1 3 0;
#X connect 1 2 2 0;
#X connect 2 0 6 1;
#X connect 3 0 5 0;
#X connect 3 1 4 1;
#X connect 4 0 3 0;
#X connect 5 0 4 0;
#X connect 5 1 6 0;
#X connect 6 0 7 1;
#X connect 7 0 8 0;
#X restore 50 436 pd normalize;
#X text 22 8 list of elements that share a same past;
#X text 100 249 convert dictionary to float (index of the list);
#X obj 71 324 + 1;
#X obj 71 250 w22f;
#X obj 52 47 t b a b a a;
#X text 223 79 here we have 256 zeroes which is 2^(number of instruments)
amount of probabilities;
#N canvas 685 403 450 300 zerolist 0;
#X text 76 16 create a zerolist with a bang and continue exporting
it with another bang;
#X obj 68 85 inlet export;
#X obj 140 88 inlet generate;
#X obj 197 147 until;
#X obj 140 107 route bang;
#X obj 183 199 list;
#X obj 215 201 list;
#X obj 203 125 t f b;
#X obj 162 221 list;
#X obj 163 251 outlet;
#X msg 200 173 0;
#X connect 1 0 8 0;
#X connect 2 0 4 0;
#X connect 3 0 10 0;
#X connect 4 1 7 0;
#X connect 5 0 6 0;
#X connect 5 0 8 1;
#X connect 6 0 5 1;
#X connect 7 0 3 0;
#X connect 7 1 5 1;
#X connect 8 0 9 0;
#X connect 10 0 5 0;
#X restore 161 192 pd zerolist;
#X obj 233 131 loadbang;
#X msg 233 152 42;
#X msg 199 89 256;
#X text 260 148 however they are not completely needed because depending
on the style you only need the amount of elements present in your style.
Despite this \, 42 is the highest amount of space needed to manage
all the possible unique patterns. In other words is the highest index
of the unique patterns of all the styles.;
#X connect 0 0 14 0;
#X connect 1 0 13 0;
#X connect 2 0 12 0;
#X connect 3 0 4 0;
#X connect 3 0 7 1;
#X connect 4 0 2 1;
#X connect 4 1 3 2;
#X connect 5 0 2 0;
#X connect 5 1 3 1;
#X connect 7 0 9 0;
#X connect 8 0 7 1;
#X connect 8 1 7 0;
#X connect 9 0 6 0;
#X connect 12 0 3 0;
#X connect 13 0 5 0;
#X connect 14 0 8 0;
#X connect 14 1 1 0;
#X connect 14 2 16 0;
#X connect 16 0 4 0;
#X connect 17 0 18 0;
#X connect 18 0 16 1;
#X connect 19 0 16 1;
#X restore 225 293 pd create probabilities;
#X text 366 292 <- given the past this is the resulting probabilities
table;
#N canvas 701 459 450 300 zfs 0;
#X obj 9 9 inlet;
#X obj 44 142 outlet;
#N canvas 803 405 450 300 zerolist 0;
#X obj 69 22 inlet;
#X obj 153 89 until;
#X obj 69 43 route bang;
#X obj 153 179 list;
#X obj 185 179 list;
#X obj 126 65 t b f;
#X msg 153 115 0;
#X obj 132 208 list;
#X obj 105 120 t b b;
#X obj 132 229 outlet;
#X connect 0 0 2 0;
#X connect 1 0 6 0;
#X connect 2 1 5 0;
#X connect 3 0 4 0;
#X connect 3 0 7 1;
#X connect 4 0 3 1;
#X connect 5 0 8 0;
#X connect 5 1 1 0;
#X connect 6 0 3 0;
#X connect 7 0 9 0;
#X connect 8 0 3 1;
#X connect 8 1 7 0;
#X restore 20 82 pd zerolist;
#X msg 20 61 256;
#X connect 0 0 3 0;
#X connect 2 0 1 0;
#X connect 3 0 2 0;
#X restore 225 419 pd zfs;
#X obj 56 272 f;
#X obj 56 570 f;
#X obj 312 587 list;
#X text 313 679 step and dictionary hit;
#X obj 409 155 sel 0;
#X obj 216 324 cnv 15 130 60 empty empty empty 20 12 0 14 -260097 -66577
0;
#X text 346 339 <- Here we apply the transfromations for the probabilities
tables;
#X obj 390 18 inlet;
#X obj 145 30 r \$0-apply-transform;
#X obj 390 99 t f f f;
#X obj 550 176 f;
#X obj 306 543 t s s;
#N canvas 83 282 564 374 first 0;
#X text 118 86 INDEX;
#X obj 92 142 t f f;
#X obj 233 159 tabread \$0-ran32;
#X obj 92 162 cyclone/coll \$0-knowledge;
#C restore;
#N canvas 484 454 579 300 random 0;
#X obj 33 28 inlet lista;
#X obj 195 22 inlet random number;
#X obj 61 247 outlet;
#X obj 33 50 t a a;
#X obj 60 71 list length;
#X obj 90 135 *;
#X obj 90 154 int;
#X obj 33 198 list split;
#X obj 61 220 list split 1;
#X obj 90 175 - 1;
#X obj 60 92 + 1.25;
#X text 179 129 great object! see where the random numebr fits within
all the possible elements of the list. the random number is nomalized
to the total number of elements of the list;
#X connect 0 0 3 0;
#X connect 1 0 5 1;
#X connect 3 0 7 0;
#X connect 3 1 4 0;
#X connect 4 0 10 0;
#X connect 5 0 6 0;
#X connect 6 0 9 0;
#X connect 7 1 8 0;
#X connect 8 0 2 0;
#X connect 9 0 7 1;
#X connect 10 0 5 0;
#X restore 92 182 pd random list 2 element;
#N canvas 434 460 450 300 split 0;
#X obj 130 77 t a a;
#X obj 187 94 list length;
#X obj 130 132 list split;
#X obj 187 113 - 1;
#X obj 130 57 inlet;
#X obj 130 233 outlet;
#X obj 158 173 outlet;
#X obj 130 210 list trim;
#X obj 158 154 zexy/symbol2list;
#X connect 0 0 2 0;
#X connect 0 1 1 0;
#X connect 1 0 3 0;
#X connect 2 0 7 0;
#X connect 2 1 8 0;
#X connect 3 0 2 1;
#X connect 4 0 0 0;
#X connect 7 0 5 0;
#X connect 8 0 6 0;
#X restore 92 293 pd split past now;
#N canvas 306 281 562 451 element2list 0;
#X obj 103 125 zexy/symbol2list;
#X msg 118 106 symbol;
#X obj 118 87 loadbang;
#X obj 103 166 list split 2;
#X obj 103 185 t b a;
#X obj 130 260 zexy/list2symbol;
#X obj 145 222 loadbang;
#X msg 145 241 symbol;
#X obj 144 202 list;
#X obj 304 329 list;
#X obj 84 352 list;
#X obj 84 33 t b a b;
#X obj 280 297 list prepend;
#X obj 84 11 inlet;
#X obj 84 387 outlet;
#X text 162 30 Convert a wrapped element of the knowledge database
into its elements.;
#X text 190 101 expand the elements (insert spaces inbetween letters)
;
#X text 194 164 make groups of two letters (each two letters are a
pattern);
#X text 209 225 pack them up again;
#X text 124 356 ouput a list with all the pairs;
#X connect 0 0 3 0;
#X connect 1 0 0 1;
#X connect 2 0 1 0;
#X connect 3 0 4 0;
#X connect 3 1 8 1;
#X connect 4 0 8 0;
#X connect 4 1 5 0;
#X connect 5 0 12 0;
#X connect 6 0 7 0;
#X connect 7 0 5 1;
#X connect 8 0 3 0;
#X connect 9 0 12 1;
#X connect 10 0 14 0;
#X connect 11 0 10 0;
#X connect 11 1 0 0;
#X connect 11 2 12 1;
#X connect 11 2 10 1;
#X connect 12 0 9 0;
#X connect 12 0 10 1;
#X connect 13 0 11 0;
#X restore 92 226 pd element2list;
#X text 196 209 this is an element of the "index" step. It defines
the now element at the index and the past which length is the markov
order.;
#X obj 92 67 inlet bang;
#X msg 92 87 0;
#X obj 92 331 outlet;
#X text 133 331 outlet the past that generates a starting element;
#X text 206 293 extract the possible pasts;
#X connect 1 0 3 0;
#X connect 1 1 2 0;
#X connect 2 0 4 1;
#X connect 3 0 4 0;
#X connect 4 0 6 0;
#X connect 5 0 10 0;
#X connect 6 0 5 0;
#X connect 8 0 9 0;
#X connect 9 0 1 0;
#X restore 409 174 pd first past;
#X obj 191 139 t f f b f;
#N canvas 141 148 1118 389 transformations 0;
#X obj 57 162 inlet;
#X obj 541 352 outlet;
#X obj 116 161 r \$0-commonness;
#N canvas 772 263 475 491 commonness 0;
#N canvas 715 412 389 266 normalize 0;
#X obj 167 49 inlet;
#X obj 167 70 t b a a;
#X obj 209 102 zexy/sum;
#N canvas 850 273 450 300 drip 0;
#X obj 30 20 inlet;
#X obj 39 76 list split 1;
#X obj 79 124 list;
#X obj 40 98 t b f;
#X obj 52 201 outlet;
#X connect 0 0 1 0;
#X connect 1 0 3 0;
#X connect 1 1 2 1;
#X connect 2 0 1 0;
#X connect 3 0 2 0;
#X connect 3 1 4 0;
#X restore 186 120 pd drip;
#X obj 186 145 /;
#N canvas 760 464 450 300 makelist 0;
#X obj 46 162 outlet;
#X obj 158 144 list;
#X obj 47 139 list;
#X obj 48 38 t b b;
#X obj 101 36 inlet;
#X obj 54 13 inlet;
#X obj 68 115 list prepend;
#X connect 1 0 6 1;
#X connect 2 0 0 0;
#X connect 3 0 1 1;
#X connect 3 0 6 1;
#X connect 3 1 2 0;
#X connect 4 0 6 0;
#X connect 5 0 3 0;
#X connect 6 0 1 0;
#X connect 6 0 2 1;
#X restore 123 187 pd makelist;
#X obj 124 212 outlet;
#X connect 0 0 1 0;
#X connect 1 0 5 0;
#X connect 1 1 3 0;
#X connect 1 2 2 0;
#X connect 2 0 4 1;
#X connect 3 0 4 0;
#X connect 4 0 5 1;
#X connect 5 0 6 0;
#X restore 128 408 pd normalize;
#N canvas 844 269 450 300 drip 0;
#X obj 30 20 inlet;
#X obj 46 49 list split 1;
#X obj 90 143 list;
#X obj 40 98 t b f;
#X obj 52 201 outlet;
#X connect 0 0 1 0;
#X connect 1 0 3 0;
#X connect 1 1 2 1;
#X connect 2 0 1 0;
#X connect 3 0 2 0;
#X connect 3 1 4 0;
#X restore 191 293 pd drip;
#N canvas 758 469 450 300 makelist 0;
#X obj 46 162 outlet;
#X obj 158 144 list;
#X obj 47 139 list;
#X obj 48 38 t b b;
#X obj 101 36 inlet;
#X obj 54 13 inlet;
#X obj 68 115 list prepend;
#X connect 1 0 6 1;
#X connect 2 0 0 0;
#X connect 3 0 1 1;
#X connect 3 0 6 1;
#X connect 3 1 2 0;
#X connect 4 0 6 0;
#X connect 5 0 3 0;
#X connect 6 0 1 0;
#X connect 6 0 2 1;
#X restore 128 387 pd makelist;
#X obj 264 208 t b f;
#X obj 134 244 list;
#X obj 128 108 t a a;
#X obj 246 153 * 10;
#X obj 191 344 expr pow($f1 \, $f2);
#X obj 128 79 inlet lista;
#X obj 246 35 inlet commonnness value;
#X obj 128 432 outlet;
#X obj 285 153 * 45;
#X obj 246 134 * -1;
#X obj 246 96 abs;
#X obj 285 134 pow 3;
#X obj 246 115 pow 3;
#X obj 296 292 f;
#X obj 128 267 t b a b;
#X obj 191 365 clip 0 100;
#X obj 246 76 moses 0;
#X obj 245 56 + 0.01;
#X connect 0 0 10 0;
#X connect 1 0 7 0;
#X connect 2 0 0 0;
#X connect 3 0 4 0;
#X connect 3 1 16 0;
#X connect 4 0 17 0;
#X connect 5 0 17 0;
#X connect 5 1 4 1;
#X connect 6 0 3 0;
#X connect 7 0 18 0;
#X connect 8 0 5 0;
#X connect 9 0 20 0;
#X connect 11 0 3 0;
#X connect 12 0 6 0;
#X connect 13 0 15 0;
#X connect 14 0 11 0;
#X connect 15 0 12 0;
#X connect 16 0 7 1;
#X connect 17 0 2 0;
#X connect 17 1 1 0;
#X connect 17 2 16 0;
#X connect 18 0 2 1;
#X connect 19 0 13 0;
#X connect 19 1 14 0;
#X connect 20 0 19 0;
#X restore 39 334 pd commonness b;
#X obj 116 180 t b f;
#X text 153 179 first update the commonness value and then generate
the new pattern.;
#N canvas 661 337 450 420 density 0;
#X obj 48 17 inlet;
#X obj 318 40 inlet;
#X text 44 2 list;
#X text 310 23 density value;
#X obj 148 302 outlet;
#X text 151 320 density value;
#X obj 174 55 list split 1;
#N canvas 715 412 389 266 normalize 0;
#X obj 167 49 inlet;
#X obj 167 70 t b a a;
#X obj 209 102 zexy/sum;
#N canvas 850 273 450 300 drip 0;
#X obj 30 20 inlet;
#X obj 39 76 list split 1;
#X obj 79 124 list;
#X obj 40 98 t b f;
#X obj 52 201 outlet;
#X connect 0 0 1 0;
#X connect 1 0 3 0;
#X connect 1 1 2 1;
#X connect 2 0 1 0;
#X connect 3 0 2 0;
#X connect 3 1 4 0;
#X restore 186 120 pd drip;
#X obj 186 145 /;
#N canvas 760 464 450 300 makelist 0;
#X obj 46 162 outlet;
#X obj 158 144 list;
#X obj 47 139 list;
#X obj 48 38 t b b;
#X obj 101 36 inlet;
#X obj 54 13 inlet;
#X obj 68 115 list prepend;
#X connect 1 0 6 1;
#X connect 2 0 0 0;
#X connect 3 0 1 1;
#X connect 3 0 6 1;
#X connect 3 1 2 0;
#X connect 4 0 6 0;
#X connect 5 0 3 0;
#X connect 6 0 1 0;
#X connect 6 0 2 1;
#X restore 123 187 pd makelist;
#X obj 124 212 outlet;
#X connect 0 0 1 0;
#X connect 1 0 5 0;
#X connect 1 1 3 0;
#X connect 1 2 2 0;
#X connect 2 0 4 1;
#X connect 3 0 4 0;
#X connect 4 0 5 1;
#X connect 5 0 6 0;
#X restore 148 256 pd normalize;
#N canvas 844 269 450 300 drip 0;
#X obj 30 20 inlet;
#X obj 46 49 list split 1;
#X obj 90 143 list;
#X obj 40 98 t b f;
#X obj 52 201 outlet;
#X connect 0 0 1 0;
#X connect 1 0 3 0;
#X connect 1 1 2 1;
#X connect 2 0 1 0;
#X connect 3 0 2 0;
#X connect 3 1 4 0;
#X restore 251 82 pd drip;
#N canvas 756 474 450 300 makelist 0;
#X obj 46 162 outlet;
#X obj 158 144 list;
#X obj 47 139 list;
#X obj 48 38 t b b;
#X obj 101 36 inlet;
#X obj 54 13 inlet;
#X obj 68 115 list prepend;
#X connect 1 0 6 1;
#X connect 2 0 0 0;
#X connect 3 0 1 1;
#X connect 3 0 6 1;
#X connect 3 1 2 0;
#X connect 4 0 6 0;
#X connect 5 0 3 0;
#X connect 6 0 1 0;
#X connect 6 0 2 1;
#X restore 194 161 pd makelist;
#X obj 251 118 *;
#X obj 148 232 list append;
#X obj 122 34 t b b a;
#X obj 148 160 f;
#X obj 163 132 *;
#X obj 313 133 abs;
#X obj 313 113 - 1;
#X obj 313 85 f;
#X connect 0 0 12 0;
#X connect 1 0 17 0;
#X connect 6 0 14 0;
#X connect 6 1 8 0;
#X connect 7 0 4 0;
#X connect 8 0 10 0;
#X connect 9 0 11 1;
#X connect 10 0 9 1;
#X connect 11 0 7 0;
#X connect 12 0 13 0;
#X connect 12 1 9 0;
#X connect 12 2 6 0;
#X connect 13 0 11 0;
#X connect 14 0 13 1;
#X connect 15 0 14 1;
#X connect 16 0 15 0;
#X connect 17 0 16 0;
#X connect 17 0 10 1;
#X restore 773 313 pd density a;
#X obj 574 108 r \$0-density;
#X obj 598 143 t b f;
#X obj 25 200 s \$0-apply-transform;
#X obj 506 163 s \$0-apply-transform;
#X text 637 146 first update the density value and then generate the
new pattern;
#N canvas 375 423 450 294 density 0;
#X obj 93 193 abstractions/sigmoid;
#N canvas 657 309 450 420 density 0;
#X obj 48 17 inlet;
#X obj 313 40 inlet;
#X text 44 2 list;
#X text 305 23 density value;
#X obj 146 302 outlet;
#X text 149 320 density value;
#X obj 161 56 list split 1;
#N canvas 715 412 389 266 normalize 0;
#X obj 167 49 inlet;
#X obj 167 70 t b a a;
#X obj 209 102 zexy/sum;
#N canvas 850 273 450 300 drip 0;
#X obj 30 20 inlet;
#X obj 39 76 list split 1;
#X obj 79 124 list;
#X obj 40 98 t b f;
#X obj 52 201 outlet;
#X connect 0 0 1 0;
#X connect 1 0 3 0;
#X connect 1 1 2 1;
#X connect 2 0 1 0;
#X connect 3 0 2 0;
#X connect 3 1 4 0;
#X restore 186 120 pd drip;
#X obj 186 145 /;
#N canvas 760 464 450 300 makelist 0;
#X obj 46 162 outlet;
#X obj 158 144 list;
#X obj 47 139 list;
#X obj 48 38 t b b;
#X obj 101 36 inlet;
#X obj 54 13 inlet;
#X obj 68 115 list prepend;
#X connect 1 0 6 1;
#X connect 2 0 0 0;
#X connect 3 0 1 1;
#X connect 3 0 6 1;
#X connect 3 1 2 0;
#X connect 4 0 6 0;
#X connect 5 0 3 0;
#X connect 6 0 1 0;
#X connect 6 0 2 1;
#X restore 123 187 pd makelist;
#X obj 124 212 outlet;
#X connect 0 0 1 0;
#X connect 1 0 5 0;
#X connect 1 1 3 0;
#X connect 1 2 2 0;
#X connect 2 0 4 1;
#X connect 3 0 4 0;
#X connect 4 0 5 1;
#X connect 5 0 6 0;
#X restore 146 256 pd normalize;
#N canvas 844 269 450 300 drip 0;
#X obj 30 20 inlet;
#X obj 46 49 list split 1;
#X obj 90 143 list;
#X obj 40 98 t b f;
#X obj 52 201 outlet;
#X connect 0 0 1 0;
#X connect 1 0 3 0;
#X connect 1 1 2 1;
#X connect 2 0 1 0;
#X connect 3 0 2 0;
#X connect 3 1 4 0;
#X restore 255 82 pd drip;
#N canvas 756 474 450 300 makelist 0;
#X obj 46 162 outlet;
#X obj 158 144 list;
#X obj 47 139 list;
#X obj 48 38 t b b;
#X obj 101 36 inlet;
#X obj 54 13 inlet;
#X obj 68 115 list prepend;
#X connect 1 0 6 1;
#X connect 2 0 0 0;
#X connect 3 0 1 1;
#X connect 3 0 6 1;
#X connect 3 1 2 0;
#X connect 4 0 6 0;
#X connect 5 0 3 0;
#X connect 6 0 1 0;
#X connect 6 0 2 1;
#X restore 192 161 pd makelist;
#X obj 255 118 *;
#X obj 146 232 list append;
#X obj 122 34 t b b a;
#X obj 146 160 f;
#X obj 161 132 *;
#X obj 313 133 abs;
#X obj 313 113 - 1;
#X obj 313 85 f;
#X connect 0 0 12 0;
#X connect 1 0 17 0;
#X connect 6 0 14 0;
#X connect 6 1 8 0;
#X connect 7 0 4 0;
#X connect 8 0 10 0;
#X connect 9 0 11 1;
#X connect 10 0 9 1;
#X connect 11 0 7 0;
#X connect 12 0 13 0;
#X connect 12 1 9 0;
#X connect 12 2 6 0;
#X connect 13 0 11 0;
#X connect 14 0 13 1;
#X connect 15 0 14 1;
#X connect 16 0 15 0;
#X connect 17 0 16 0;
#X connect 17 0 10 1;
#X restore 93 212 pd density a;
#X obj 93 154 - 0.5;
#X obj 93 173 * 2;
#X obj 93 235 outlet;
#X obj 93 71 inlet probs;
#X obj 93 135 f;
#X obj 93 92 t b a;
#X obj 280 94 t f f;
#X obj 280 75 inlet density value;
#X connect 0 0 1 0;
#X connect 1 0 4 0;
#X connect 2 0 3 0;
#X connect 3 0 0 0;
#X connect 5 0 7 0;
#X connect 6 0 2 0;
#X connect 7 0 6 0;
#X connect 7 1 0 1;
#X connect 8 0 6 1;
#X connect 8 1 1 1;
#X connect 9 0 8 0;
#X restore 851 313 pd density b;
#N canvas 314 173 450 493 syncopation 0;
#X obj 72 238 until;
#X msg 72 218 32;
#X obj 72 198 t b b;
#X obj 72 259 f;
#X obj 96 259 + 1;
#X msg 110 238 0;
#X obj 72 181 bng 15 250 50 0 empty empty empty 17 7 0 10 -262144 -1
-1;
#N canvas 0 50 450 300 (subpatch) 0;
#X array \$0-syncd-a 32 float 2;
#X coords 0 1 32 0 200 50 1 0 0;
#X restore 232 361 graph;
#X obj 72 278 t f f;
#X obj 72 297 % 2;
#X obj 199 156 t b f;
#X obj 72 336 f;
#X obj 115 338 f;
#X obj 277 274 - 1;
#X obj 276 293 abs;
#X obj 226 204 moses 0.5;
#X obj 226 255 * 2;
#X obj 276 316 * 2;
#X msg 230 290 1;
#X msg 238 312 1;
#X obj 72 316 sel 1 0;
#X obj 199 136 inlet syncopation value;
#X obj 95 361 tabwrite \$0-syncd-a;
#X connect 0 0 3 0;
#X connect 1 0 0 0;
#X connect 2 0 1 0;
#X connect 2 1 5 0;
#X connect 3 0 4 0;
#X connect 3 0 8 0;
#X connect 4 0 3 1;
#X connect 5 0 3 1;
#X connect 6 0 2 0;
#X connect 8 0 9 0;
#X connect 8 1 22 1;
#X connect 9 0 20 0;
#X connect 10 0 6 0;
#X connect 10 1 15 0;
#X connect 11 0 22 0;
#X connect 12 0 22 0;
#X connect 13 0 14 0;
#X connect 14 0 17 0;
#X connect 15 0 16 0;
#X connect 15 1 13 0;
#X connect 16 0 11 1;
#X connect 16 0 18 0;
#X connect 17 0 12 1;
#X connect 17 0 19 0;
#X connect 18 0 12 1;
#X connect 19 0 11 1;
#X connect 20 0 11 0;
#X connect 20 1 12 0;
#X connect 21 0 10 0;
#X restore 628 67 pd syncopation a;
#X obj 604 11 r \$0-syncopation;
#X text 703 38 syncopation is written in a table called \$0-syncd which
should be multiplied step by step with the density;
#X obj 610 229 inlet step;
#X text 705 210 multiply the density value on the syncoipation table
with the density that comes from the slider;
#X obj 611 270 *;
#X obj 601 48 t b f;
#X obj 601 86 s \$0-apply-transform;
#X obj 610 248 tabread \$0-syncd-a;
#N canvas 715 412 389 266 normalize 0;
#X obj 167 49 inlet;
#X obj 167 70 t b a a;
#X obj 209 102 zexy/sum;
#N canvas 850 273 450 300 drip 0;
#X obj 30 20 inlet;
#X obj 39 76 list split 1;
#X obj 79 124 list;
#X obj 40 98 t b f;
#X obj 52 201 outlet;
#X connect 0 0 1 0;
#X connect 1 0 3 0;
#X connect 1 1 2 1;
#X connect 2 0 1 0;
#X connect 3 0 2 0;
#X connect 3 1 4 0;
#X restore 186 120 pd drip;
#X obj 186 145 /;
#N canvas 760 464 450 300 makelist 0;
#X obj 46 162 outlet;
#X obj 158 144 list;
#X obj 47 139 list;
#X obj 48 38 t b b;
#X obj 101 36 inlet;
#X obj 54 13 inlet;
#X obj 68 115 list prepend;
#X connect 1 0 6 1;
#X connect 2 0 0 0;
#X connect 3 0 1 1;
#X connect 3 0 6 1;
#X connect 3 1 2 0;
#X connect 4 0 6 0;
#X connect 5 0 3 0;
#X connect 6 0 1 0;
#X connect 6 0 2 1;
#X restore 123 187 pd makelist;
#X obj 124 212 outlet;
#X connect 0 0 1 0;
#X connect 1 0 5 0;
#X connect 1 1 3 0;
#X connect 1 2 2 0;
#X connect 2 0 4 1;
#X connect 3 0 4 0;
#X connect 4 0 5 1;
#X connect 5 0 6 0;
#X restore 541 330 pd normalize;
#N canvas 25 179 772 589 density 0;
#X obj 397 153 t b a b;
#X obj 375 360 pow;
#X obj 272 310 - 1;
#X obj 272 330 abs;
#X obj 453 401 list;
#X obj 354 423 list;
#X obj 375 401 list prepend;
#X obj 166 113 list split 1;
#X msg 479 288 1;
#X obj 479 231 sel 0 4 10;
#X obj 416 329 *;
#X msg 535 288 1;
#X text 562 289 change this value progressively;
#X obj 166 482 list;
#X obj 139 85 t b a;
#X obj 139 505 list;
#X obj 139 525 outlet;
#X obj 139 66 inlet lista;
#N canvas 631 285 450 300 listdrip 0;
#X obj 260 227 outlet f;
#X obj 91 76 list split 1;
#X obj 60 191 list;
#X obj 77 155 t b f b;
#X obj 144 117 f;
#X obj 170 117 + 1;
#X msg 190 68 0;
#X obj 80 30 inlet list;
#X obj 80 51 t a b;
#X obj 89 229 outlet element;
#X connect 1 0 3 0;
#X connect 1 1 2 1;
#X connect 2 0 1 0;
#X connect 3 0 2 0;
#X connect 3 1 9 0;
#X connect 3 2 4 0;
#X connect 4 0 5 0;
#X connect 4 0 0 0;
#X connect 5 0 4 1;
#X connect 6 0 4 1;
#X connect 7 0 8 0;
#X connect 8 0 1 0;
#X connect 8 1 6 0;
#X restore 416 179 pd listdrip;
#N canvas 583 401 450 300 dens2silence 0;
#X obj 310 23 inlet density;
#X obj 84 16 inlet probabilty of silence;
#X obj 156 250 outlet new silence probability;
#X obj 135 152 - 1;
#X obj 135 171 abs;
#X obj 120 220 +;
#X obj 120 197 *;
#X obj 61 153 * -1;
#X obj 61 131 moses 0;
#X obj 171 200 +;
#X obj 162 175 *;
#X obj 133 130 t f f f f;
#X obj 102 157 * -1;
#X obj 61 75 f;
#X obj 84 45 t b f;
#X connect 0 0 13 1;
#X connect 1 0 14 0;
#X connect 3 0 4 0;
#X connect 4 0 6 1;
#X connect 5 0 2 0;
#X connect 6 0 5 0;
#X connect 7 0 6 0;
#X connect 8 0 7 0;
#X connect 8 1 12 0;
#X connect 9 0 2 0;
#X connect 10 0 9 0;
#X connect 11 0 3 0;
#X connect 11 1 5 1;
#X connect 11 2 10 1;
#X connect 11 3 9 1;
#X connect 12 0 10 0;
#X connect 13 0 8 0;
#X connect 14 0 13 0;
#X connect 14 1 11 0;
#X restore 166 330 pd dens2silence;
#X obj 253 192 t f f f;
#X obj 479 312 +;
#X obj 507 312 +;
#X obj 535 312 +;
#X obj 293 227 moses 0;
#X obj 293 283 * 1;
#X obj 317 284 * 3;
#X obj 352 285 * 6;
#X obj 253 83 inlet valor de density;
#X obj 253 104 moses 0;
#X obj 253 123 abs;
#X obj 253 162 * -1;
#X obj 253 142 pow 3;
#X obj 306 151 * 0.25;
#X msg 507 288 1;
#X obj 552 251 clip 0 0.3;
#X obj 623 248 clip 0 0.6;
#X obj 686 233 clip 0 1;
#X obj 552 271 * 1;
#X obj 623 269 * 10;
#X obj 687 265 * 50;
#X connect 0 0 5 0;
#X connect 0 1 18 0;
#X connect 0 2 6 1;
#X connect 1 0 6 0;
#X connect 2 0 3 0;
#X connect 3 0 1 1;
#X connect 4 0 6 1;
#X connect 5 0 13 1;
#X connect 6 0 4 0;
#X connect 6 0 5 1;
#X connect 7 0 19 0;
#X connect 7 1 0 0;
#X connect 8 0 21 0;
#X connect 9 0 8 0;
#X connect 9 1 34 0;
#X connect 9 2 11 0;
#X connect 10 0 1 0;
#X connect 11 0 23 0;
#X connect 13 0 15 1;
#X connect 14 0 15 0;
#X connect 14 1 7 0;
#X connect 15 0 16 0;
#X connect 17 0 14 0;
#X connect 18 0 10 0;
#X connect 18 1 9 0;
#X connect 19 0 13 0;
#X connect 20 0 19 1;
#X connect 20 1 2 0;
#X connect 20 2 24 0;
#X connect 21 0 10 1;
#X connect 22 0 10 1;
#X connect 23 0 10 1;
#X connect 24 0 25 0;
#X connect 24 0 26 0;
#X connect 24 0 27 0;
#X connect 24 1 35 0;
#X connect 24 1 36 0;
#X connect 24 1 37 0;
#X connect 25 0 21 1;
#X connect 26 0 22 1;
#X connect 27 0 23 1;
#X connect 28 0 29 0;
#X connect 29 0 30 0;
#X connect 29 1 33 0;
#X connect 30 0 32 0;
#X connect 31 0 20 0;
#X connect 32 0 31 0;
#X connect 33 0 20 0;
#X connect 34 0 22 0;
#X connect 35 0 38 0;
#X connect 36 0 39 0;
#X connect 37 0 40 0;
#X connect 38 0 21 1;
#X connect 39 0 22 1;
#X connect 40 0 23 1;
#X restore 539 294 pd density c;
#N canvas 294 277 475 491 commonness 0;
#N canvas 715 412 389 266 normalize 0;
#X obj 167 49 inlet;
#X obj 167 70 t b a a;
#X obj 209 102 zexy/sum;
#N canvas 850 273 450 300 drip 0;
#X obj 30 20 inlet;
#X obj 39 76 list split 1;
#X obj 79 124 list;
#X obj 40 98 t b f;
#X obj 52 201 outlet;
#X connect 0 0 1 0;
#X connect 1 0 3 0;
#X connect 1 1 2 1;
#X connect 2 0 1 0;
#X connect 3 0 2 0;
#X connect 3 1 4 0;
#X restore 186 120 pd drip;
#X obj 186 145 /;
#N canvas 760 464 450 300 makelist 0;
#X obj 46 162 outlet;
#X obj 158 144 list;
#X obj 47 139 list;
#X obj 48 38 t b b;
#X obj 101 36 inlet;
#X obj 54 13 inlet;
#X obj 68 115 list prepend;
#X connect 1 0 6 1;
#X connect 2 0 0 0;
#X connect 3 0 1 1;
#X connect 3 0 6 1;
#X connect 3 1 2 0;
#X connect 4 0 6 0;
#X connect 5 0 3 0;
#X connect 6 0 1 0;
#X connect 6 0 2 1;
#X restore 123 187 pd makelist;
#X obj 124 212 outlet;
#X connect 0 0 1 0;
#X connect 1 0 5 0;
#X connect 1 1 3 0;
#X connect 1 2 2 0;
#X connect 2 0 4 1;
#X connect 3 0 4 0;
#X connect 4 0 5 1;
#X connect 5 0 6 0;
#X restore 128 408 pd normalize;
#N canvas 844 269 450 300 drip 0;
#X obj 30 20 inlet;
#X obj 46 49 list split 1;
#X obj 90 143 list;
#X obj 40 98 t b f;
#X obj 52 201 outlet;
#X connect 0 0 1 0;
#X connect 1 0 3 0;
#X connect 1 1 2 1;
#X connect 2 0 1 0;
#X connect 3 0 2 0;
#X connect 3 1 4 0;
#X restore 182 295 pd drip;
#N canvas 758 469 450 300 makelist 0;
#X obj 46 162 outlet;
#X obj 158 144 list;
#X obj 47 139 list;
#X obj 48 38 t b b;
#X obj 101 36 inlet;
#X obj 54 13 inlet;
#X obj 68 115 list prepend;
#X connect 1 0 6 1;
#X connect 2 0 0 0;
#X connect 3 0 1 1;
#X connect 3 0 6 1;
#X connect 3 1 2 0;
#X connect 4 0 6 0;
#X connect 5 0 3 0;
#X connect 6 0 1 0;
#X connect 6 0 2 1;
#X restore 128 387 pd makelist;
#X obj 264 208 t b f;
#X obj 134 244 list;
#X obj 228 373 expr pow($f1 \, $f2);
#X obj 130 12 inlet lista;
#X obj 246 35 inlet commonnness value;
#X obj 128 432 outlet;
#X obj 296 292 f;
#X obj 128 267 t b a b;
#X obj 252 66 moses 0;
#X obj 170 143 zexy/minmax;
#X obj 185 315 / 1;
#X obj 128 108 t a a a;
#X obj 299 186 + 1;
#X obj 299 163 * 45;
#X obj 297 142 pow 3;
#X obj 252 113 + 1;
#X msg 410 296 0;
#X obj 291 90 t f f;
#X obj 252 88 t f f;
#X obj 230 353 expr if($f1<$f2 && $f1!=0 \, $f2 \, $f1);
#X msg 358 306 0.01;
#X obj 166 69 nbx 5 14 -1e+37 1e+37 0 0 empty empty empty 0 -8 0 10
-262144 -1 -1 0 256;
#X obj 187 335 sel 0;
#X msg 189 359 0;
#X obj 255 164 pow 3;
#X connect 0 0 8 0;
#X connect 1 0 13 0;
#X connect 2 0 0 0;
#X connect 3 0 4 0;
#X connect 3 1 9 0;
#X connect 4 0 10 0;
#X connect 5 0 2 1;
#X connect 6 0 14 0;
#X connect 7 0 11 0;
#X connect 9 0 5 1;
#X connect 10 0 2 0;
#X connect 10 1 1 0;
#X connect 10 2 9 0;
#X connect 11 0 21 0;
#X connect 11 1 20 0;
#X connect 12 1 13 1;
#X connect 13 0 25 0;
#X connect 14 0 10 0;
#X connect 14 1 4 1;
#X connect 14 2 12 0;
#X connect 15 0 3 0;
#X connect 16 0 15 0;
#X connect 17 0 16 0;
#X connect 18 0 27 0;
#X connect 19 0 22 1;
#X connect 20 0 17 0;
#X connect 20 1 19 0;
#X connect 21 0 18 0;
#X connect 21 1 23 0;
#X connect 22 0 5 0;
#X connect 23 0 22 1;
#X connect 24 0 11 0;
#X connect 25 0 26 0;
#X connect 25 1 22 0;
#X connect 26 0 2 1;
#X connect 27 0 3 0;
#X restore 57 227 pd commonness c;
#X connect 0 0 24 0;
#X connect 2 0 4 0;
#X connect 4 0 9 0;
#X connect 4 1 24 1;
#X connect 8 0 10 0;
#X connect 8 1 18 1;
#X connect 16 0 21 0;
#X connect 18 0 23 1;
#X connect 19 0 20 0;
#X connect 19 1 13 0;
#X connect 21 0 18 0;
#X connect 22 0 1 0;
#X connect 24 0 22 0;
#X restore 225 346 pd transformations;
#N canvas 873 414 450 300 iterate32 0;
#X obj 58 18 inlet bang;
#X obj 57 155 outlet float;
#X obj -42 76 until;
#X msg -42 57 32;
#X obj -42 95 f;
#X obj -18 95 + 1;
#X msg 2 69 0;
#X obj -42 38 t b b;
#X obj 178 84 moses 0;
#X obj 147 65 + 1;
#X obj 240 22 bng 15 250 50 0 empty empty empty 17 7 0 10 -262144 -1
-1;
#X obj 135 88 f;
#X msg 237 64 32;
#X msg 182 57 0;
#X obj 169 39 t b b;
#X obj 190 113 t b;
#X obj 190 138 del 2;
#X connect 0 0 7 0;
#X connect 2 0 4 0;
#X connect 3 0 2 0;
#X connect 4 0 5 0;
#X connect 4 0 1 0;
#X connect 5 0 4 1;
#X connect 6 0 4 1;
#X connect 7 0 3 0;
#X connect 7 1 6 0;
#X connect 8 0 9 0;
#X connect 8 0 1 0;
#X connect 8 0 15 0;
#X connect 9 0 11 1;
#X connect 10 0 14 0;
#X connect 11 0 8 0;
#X connect 12 0 8 1;
#X connect 13 0 8 0;
#X connect 14 0 13 0;
#X connect 14 1 12 0;
#X connect 15 0 16 0;
#X connect 16 0 11 0;
#X restore 390 78 pd iterate32;
#X obj 201 480 f2w2;
#X obj 390 37 t b b;
#X msg 341 20 bang;
#X msg 309 169 0;
#X msg 504 107 0;
#X text 229 478 convert float to word;
#X text 511 552 Feedback the past to;
#X text 512 561 generate new elements;
#X obj 249 235 print;
#X obj 361 617 t l l;
#X obj 656 641 sel 31;
#X obj 418 641 unpack 0 s;
#X obj 640 671 outlet end;
#X connect 0 0 2 0;
#X connect 1 0 9 0;
#X connect 2 0 1 0;
#X connect 3 0 8 0;
#X connect 4 0 11 0;
#X connect 5 0 9 1;
#X connect 5 1 4 1;
#X connect 6 0 16 0;
#X connect 7 0 18 0;
#X connect 7 0 10 0;
#X connect 7 1 8 1;
#X connect 8 0 35 0;
#X connect 9 0 6 1;
#X connect 11 0 12 0;
#X connect 11 1 30 0;
#X connect 12 0 14 0;
#X connect 14 0 5 0;
#X connect 16 0 33 0;
#X connect 18 0 8 1;
#X connect 19 0 20 0;
#X connect 20 0 21 0;
#X connect 21 0 44 0;
#X connect 23 0 31 0;
#X connect 26 0 36 0;
#X connect 27 0 34 0;
#X connect 28 0 32 0;
#X connect 28 1 23 0;
#X connect 28 2 29 0;
#X connect 29 0 33 1;
#X connect 30 0 12 1;
#X connect 30 1 21 1;
#X connect 31 0 5 0;
#X connect 32 0 19 0;
#X connect 32 1 3 0;
#X connect 32 2 6 0;
#X connect 32 3 0 0;
#X connect 33 0 7 0;
#X connect 34 0 28 0;
#X connect 35 0 4 0;
#X connect 36 0 34 0;
#X connect 36 1 15 0;
#X connect 37 0 36 0;
#X connect 38 0 0 0;
#X connect 39 0 28 0;
#X connect 44 0 46 0;
#X connect 44 1 13 0;
#X connect 45 0 47 0;
#X connect 46 0 45 0;
#X restore 26 398 pd search next now;
#X obj 78 441 print ZFS;
#X obj 78 420 bng 15 250 50 0 nos nor empty 17 7 0 10 -262144 -1 -1
;
#N canvas 107 496 916 300 setup 0;
#X obj 72 176 f \$0;
#X obj 87 198 list;
#X obj 540 179 f \$0;
#X obj 562 204 list;
#X msg 562 227 \; \$1-style label \$2;
#X obj 540 157 t b a;
#X obj 541 132 zexy/list2symbol;
#X obj 72 154 t b a;
#X msg 86 217 \; \$1-style vis_size \$2 \$3;
#X obj 223 171 f \$0;
#X obj 238 193 list;
#X obj 223 149 t b a;
#X obj 378 167 f \$0;
#X obj 393 189 list;
#X obj 378 145 t b a;
#X msg 396 213 \; \$1-style label_font \$2 \$3;
#X msg 238 214 \; \$1-style label_pos \$2 \$3;
#X msg 541 111 select a style;
#X obj 670 153 f \$0;
#X obj 692 178 list;
#X obj 670 131 t b a;
#X msg 692 201 \; \$1-style color \$2 \$3;
#X msg 72 135 258 328;
#X msg 223 130 14 20;
#X msg 378 126 1 48;
#X text 710 106 11 13;
#X msg 670 112 11 0;
#X obj 168 64 +;
#X text 168 49 it used to be a loadbang!;
#X connect 0 0 1 0;
#X connect 1 0 8 0;
#X connect 2 0 3 0;
#X connect 3 0 4 0;
#X connect 5 0 2 0;
#X connect 5 1 3 1;
#X connect 6 0 5 0;
#X connect 7 0 0 0;
#X connect 7 1 1 1;
#X connect 9 0 10 0;
#X connect 10 0 16 0;
#X connect 11 0 9 0;
#X connect 11 1 10 1;
#X connect 12 0 13 0;
#X connect 13 0 15 0;
#X connect 14 0 12 0;
#X connect 14 1 13 1;
#X connect 17 0 6 0;
#X connect 18 0 19 0;
#X connect 19 0 21 0;
#X connect 20 0 18 0;
#X connect 20 1 19 1;
#X connect 22 0 7 0;
#X connect 23 0 11 0;
#X connect 24 0 14 0;
#X connect 26 0 20 0;
#X connect 27 0 22 0;
#X connect 27 0 23 0;
#X connect 27 0 24 0;
#X connect 27 0 17 0;
#X connect 27 0 26 0;
#X restore 16 8 pd setup;
#N canvas 562 557 450 157 mouseup 0;
#X obj 178 18 inlet;
#X msg 194 68 stop;
#X obj 185 134 outlet;
#X obj 185 115 f;
#X obj 178 39 t b b b f;
#X obj 178 90 delay 100;
#X connect 0 0 4 0;
#X connect 1 0 5 0;
#X connect 3 0 2 0;
#X connect 4 0 5 0;
#X connect 4 1 1 0;
#X connect 4 2 5 0;
#X connect 4 3 3 1;
#X connect 5 0 3 0;
#X restore 195 24 pd mouseup;
#X obj 195 43 s \$0-commonness;
#X obj 313 42 s \$0-density;
#N canvas 565 559 450 157 mouseup 0;
#X obj 178 18 inlet;
#X msg 194 68 stop;
#X obj 185 134 outlet;
#X obj 185 115 f;
#X obj 178 39 t b b b f;
#X obj 178 90 delay 300;
#X connect 0 0 4 0;
#X connect 1 0 5 0;
#X connect 3 0 2 0;
#X connect 4 0 5 0;
#X connect 4 1 1 0;
#X connect 4 2 5 0;
#X connect 4 3 3 1;
#X connect 5 0 3 0;
#X restore 313 23 pd mouseup;
#N canvas 565 559 450 157 mouseup 0;
#X obj 178 18 inlet;
#X msg 194 68 stop;
#X obj 185 134 outlet;
#X obj 185 115 f;
#X obj 178 39 t b b b f;
#X obj 178 90 delay 300;
#X connect 0 0 4 0;
#X connect 1 0 5 0;
#X connect 3 0 2 0;
#X connect 4 0 5 0;
#X connect 4 1 1 0;
#X connect 4 2 5 0;
#X connect 4 3 3 1;
#X connect 5 0 3 0;
#X restore 40 649 pd mouseup;
#X obj 40 668 s \$0-syncopation;
#X obj 71 196 tgl 40 0 start-drumz nor start 0 19 0 14 -262144 -1 -1
0 1;
#X obj 315 295 nbx 4 18 0 200 0 1 bpm tap-bpm BPM 0 -8 1 20 -262144
-1 -1 121.399 256;
#N canvas 340 232 785 500 tap 0;
#X obj 244 55 timer;
#X obj 323 113 list;
#X msg 313 90 bang;
#X obj 244 113 list prepend;
#X obj 244 134 list split 1;
#X obj 278 155 route bang;
#X obj 501 315 list length;
#X obj 352 265 list split 1;
#X obj 352 305 list;
#X obj 352 285 t b f;
#X obj 433 314 +;
#X obj 335 370 f;
#X obj 433 333 /;
#X obj 458 313 f;
#X msg 448 251 0;
#X obj 335 176 t b a a b;
#X obj 244 26 t b b b b;
#X msg 320 48 stop;
#X obj 335 391 t b f;
#X msg 335 415 60000;
#X obj 346 443 /;
#X obj 244 7 inlet bang;
#X obj 349 470 outlet bpm;
#X obj 320 71 delay 2000;
#X connect 0 0 3 0;
#X connect 1 0 3 1;
#X connect 2 0 3 1;
#X connect 3 0 1 0;
#X connect 3 0 4 0;
#X connect 4 1 5 0;
#X connect 5 1 15 0;
#X connect 6 0 12 1;
#X connect 7 0 9 0;
#X connect 7 1 8 1;
#X connect 8 0 7 0;
#X connect 9 0 8 0;
#X connect 9 1 10 0;
#X connect 10 0 12 0;
#X connect 10 0 13 0;
#X connect 11 0 18 0;
#X connect 12 0 11 1;
#X connect 13 0 10 1;
#X connect 14 0 10 1;
#X connect 15 0 11 0;
#X connect 15 1 7 0;
#X connect 15 2 6 0;
#X connect 15 3 14 0;
#X connect 16 0 0 0;
#X connect 16 1 0 1;
#X connect 16 2 23 0;
#X connect 16 3 17 0;
#X connect 17 0 23 0;
#X connect 18 0 19 0;
#X connect 18 1 20 1;
#X connect 19 0 20 0;
#X connect 20 0 22 0;
#X connect 21 0 16 0;
#X connect 23 0 2 0;
#X restore 15 245 pd tap;
#X obj 15 198 bng 40 250 50 0 empty empty tap 6 18 1 20 -33289 -261234
-262144;
#X obj 15 264 s tap-bpm;
#X obj 60 139 r st;
#X obj 247 214 r cng;
#X obj 247 238 s \$0-generate-drumz;
#X obj 247 257 r bp;
#X obj 247 278 int;
#X obj 28 139 r tp;
#X obj 21 65 hsl 128 15 0 1 0 1 vol-ui nor volume 33 8 1 12 -1 -262144
-262144 7300 1;
#X obj 95 106 s \$0-volume;
#N canvas 652 325 613 300 load 0;
#X obj 107 43 inlet;
#X obj 198 184 symbol;
#X msg 461 144 hiphop;
#X obj 107 63 sel 0 1 2 3 4 5;
#X msg 198 203 read drumstyles/\$1;
#X obj 198 222 cyclone/coll \$0-knowledge;
#C restore;
#X msg 20 147 motown_2;
#X msg 78 147 jamesbrown_2;
#X msg 160 146 clyde1_2;
#X msg 218 145 funkyfresh_2;
#X msg 373 144 garagehouse_2;
#X msg 301 144 daftpunk_3;
#X connect 0 0 3 0;
#X connect 1 0 4 0;
#X connect 2 0 1 0;
#X connect 3 0 6 0;
#X connect 3 1 7 0;
#X connect 3 2 8 0;
#X connect 3 3 9 0;
#X connect 3 4 11 0;
#X connect 3 5 10 0;
#X connect 4 0 5 0;
#X connect 6 0 1 0;
#X connect 7 0 1 0;
#X connect 8 0 1 0;
#X connect 9 0 1 0;
#X connect 10 0 1 0;
#X connect 11 0 1 0;
#X restore 324 127 pd load a style to the cyclone/coll;
#X obj 297 107 t b f;
#X obj 26 370 r \$0-generate-drumz;
#X obj 295 88 r \$0-stylenumber;
#X msg 242 553 kick \$1;
#X msg 340 550 snare \$1;
#X msg 453 551 ch \$1;
#X msg 532 552 oh \$1;
#X msg 627 557 cp \$1;
#X msg 726 557 rs \$1;
#X obj 195 5 r param_comm-ui;
#X obj 611 458 hradio 18 1 1 8 \$0-order nor empty 0 -8 0 10 -262144
-1 -1 2;
#X obj 313 4 r param_den-ui;
#X obj 40 629 r param_sync-ui;
#X obj 96 85 r vol-ui;
#X obj 241 522 r param_ag-kick;
#X obj 340 522 r param_ag-snare;
#X obj 447 523 r param_ag-ch;
#X obj 534 523 r param_ag-oh;
#X obj 626 524 r param_ag-cp;
#X obj 724 527 r param_ag-rs;
#N canvas 16 131 1169 473 patt2sequencer 0;
#X obj 131 28 inlet;
#X obj 158 205 pack;
#X obj 188 205 pack;
#X obj 218 262 pack;
#X obj 299 265 pack;
#X obj 158 66 list split 1;
#X obj 158 102 list;
#X obj 158 121 unpack f f f f f f f f f;
#X obj 345 206 pack;
#X obj 378 206 pack;
#X obj 410 205 pack;
#X obj 410 244 s loconga-allocate;
#X obj 441 205 pack;
#X obj 441 225 s hiconga-allocate;
#N canvas 801 440 450 332 avoid 0;
#X obj 159 16 inlet;
#X obj 200 20 inlet;
#X obj 172 293 outlet;
#X obj 230 292 outlet;
#X obj 244 73 &;
#X obj 244 93 - 1;
#X obj 244 113 abs;
#X obj 214 44 t f f;
#X obj 157 165 spigot;
#X obj 214 165 spigot;
#X msg 244 239 0;
#X msg 271 239 1;
#X floatatom 281 160 5 0 0 0 - - -, f 5;
#X obj 244 133 t f f f;
#X obj 244 193 sel 0;
#X obj 244 213 t b b;
#X floatatom 282 74 5 0 0 0 - - -, f 5;
#X obj 157 44 t f b f;
#X obj 197 114 f;
#X connect 0 0 17 0;
#X connect 1 0 7 0;
#X connect 4 0 5 0;
#X connect 4 0 16 0;
#X connect 5 0 6 0;
#X connect 6 0 13 0;
#X connect 7 0 18 1;
#X connect 7 1 4 1;
#X connect 8 0 2 0;
#X connect 9 0 3 0;
#X connect 10 0 2 0;
#X connect 11 0 3 0;
#X connect 13 0 14 0;
#X connect 13 1 8 1;
#X connect 13 2 9 1;
#X connect 13 2 12 0;
#X connect 14 0 15 0;
#X connect 15 0 10 0;
#X connect 15 1 11 0;
#X connect 17 0 8 0;
#X connect 17 1 18 0;
#X connect 17 2 4 0;
#X connect 18 0 9 0;
#X restore 239 241 pd avoid ch&oh;
#X obj 192 85 w22l;
#X obj 158 431 table kickpattern 32;
#X obj 158 412 tabwrite kickpattern;
#X msg 158 322 \$2 \$1;
#X msg 317 338 \$2 \$1;
#X obj 317 430 table snarepattern 32;
#X obj 317 411 tabwrite snarepattern;
#X msg 481 363 \$2 \$1;
#X obj 479 404 tabwrite chpattern;
#X obj 479 422 table chpattern 32;
#X msg 637 370 \$2 \$1;
#X obj 637 407 tabwrite ohpattern;
#X obj 637 426 table ohpattern 32;
#X msg 781 371 \$2 \$1;
#X obj 781 409 tabwrite cppattern;
#X obj 781 428 table cppattern 32;
#X msg 939 372 \$2 \$1;
#X obj 939 409 tabwrite rspattern;
#X obj 939 428 table rspattern 32;
#X obj 155 299 s kick-allocate;
#X obj 217 324 s snare-allocate;
#X obj 400 339 s chihat-allocate;
#X obj 341 279 s ohihat-allocate;
#X obj 490 293 s clap-allocate;
#X obj 606 287 s rimshot-allocate;
#X obj 131 47 t b a;
#X obj 96 104 outlet;
#X connect 0 0 40 0;
#X connect 1 0 18 0;
#X connect 1 0 34 0;
#X connect 2 0 19 0;
#X connect 2 0 35 0;
#X connect 3 0 22 0;
#X connect 3 0 36 0;
#X connect 4 0 25 0;
#X connect 4 0 37 0;
#X connect 5 0 6 0;
#X connect 5 1 15 0;
#X connect 6 0 7 0;
#X connect 7 0 1 0;
#X connect 7 0 2 0;
#X connect 7 0 3 0;
#X connect 7 0 4 0;
#X connect 7 0 8 0;
#X connect 7 0 9 0;
#X connect 7 0 10 0;
#X connect 7 0 12 0;
#X connect 7 1 1 1;
#X connect 7 2 2 1;
#X connect 7 3 14 0;
#X connect 7 4 14 1;
#X connect 7 5 8 1;
#X connect 7 6 9 1;
#X connect 7 7 10 1;
#X connect 7 8 12 1;
#X connect 8 0 28 0;
#X connect 8 0 38 0;
#X connect 9 0 31 0;
#X connect 9 0 39 0;
#X connect 10 0 11 0;
#X connect 12 0 13 0;
#X connect 14 0 3 1;
#X connect 14 1 4 1;
#X connect 15 0 6 1;
#X connect 18 0 17 0;
#X connect 19 0 21 0;
#X connect 22 0 23 0;
#X connect 25 0 26 0;
#X connect 28 0 29 0;
#X connect 31 0 32 0;
#X connect 40 0 41 0;
#X connect 40 1 5 0;
#X restore 26 464 pd patt2sequencer;
#N canvas 55 77 1181 599 agnostic-density 0;
#X obj 154 441 zexy/tabdump kickpattern;
#X obj 151 563 s kick-string;
#X obj 169 496 zexy/sum;
#X obj 150 517 +;
#X obj 402 115 * 16;
#X obj 471 51 inlet;
#X obj 306 491 zexy/sum;
#X obj 291 512 +;
#X obj 292 410 zexy/tabdump snarepattern;
#X obj 292 550 s snare-string;
#X obj 447 449 zexy/sum;
#X obj 432 470 +;
#X obj 432 407 zexy/tabdump chpattern;
#X obj 432 508 s chihat-string;
#X obj 573 455 zexy/sum;
#X obj 558 476 +;
#X obj 558 514 s ohihat-string;
#X obj 570 398 zexy/tabdump ohpattern;
#X obj 703 458 zexy/sum;
#X obj 688 479 +;
#X obj 703 398 zexy/tabdump cppattern;
#X obj 688 517 s clap-string;
#X obj 834 457 zexy/sum;
#X obj 819 478 +;
#X obj 832 398 zexy/tabdump rspattern;
#X obj 819 516 s rimshot-string;
#X obj 471 70 route kick snare ch oh cp rs;
#X obj 154 460 t b a a;
#X obj 292 429 t b a a;
#X obj 432 426 t b a a;
#X obj 570 417 t b a a;
#X obj 703 417 t b a a;
#X obj 832 417 t b a a;
#X obj 197 256 inlet;
#X obj 134 318 f;
#X obj 153 392 t b f f;
#X obj 134 338 sel 0;
#X obj 299 322 f;
#X obj 292 385 t b f f;
#X obj 299 342 sel 0;
#X obj 197 275 t b b b b b b b b;
#X obj 439 322 f;
#X obj 432 385 t b f f;
#X obj 439 342 sel 0;
#X obj 543 322 f;
#X obj 570 379 t b f f;
#X obj 543 341 sel 0;
#X obj 676 322 f;
#X obj 703 379 t b f f;
#X obj 676 341 sel 0;
#X obj 805 322 f;
#X obj 832 379 t b f f;
#X obj 805 341 sel 0;
#X msg 161 358 \$1;
#X msg 326 362 \$1;
#X msg 466 362 \$1;
#X msg 571 360 \$1;
#X msg 703 360 \$1;
#X msg 832 360 \$1;
#X obj 400 150 change;
#X obj 402 133 int;
#X obj 462 116 * 16;
#X obj 460 151 change;
#X obj 462 134 int;
#X obj 290 470 f;
#X obj 150 478 f;
#X obj 512 162 change;
#X obj 514 141 int;
#X obj 514 123 * 24;
#X obj 423 448 f;
#X obj 571 170 change;
#X obj 573 149 int;
#X obj 573 131 * 16;
#X obj 549 453 f;
#X obj 615 167 change;
#X obj 617 146 int;
#X obj 617 128 * 16;
#X obj 690 166 change;
#X obj 692 145 int;
#X obj 692 127 * 16;
#X obj 680 461 f;
#X obj 813 457 f;
#X obj 291 531 populate_rhythm;
#X obj 151 542 populate_rhythm;
#X obj 432 489 populate_rhythm;
#X obj 558 495 populate_rhythm;
#X obj 688 498 populate_rhythm;
#X obj 819 497 populate_rhythm;
#X connect 0 0 27 0;
#X connect 2 0 3 1;
#X connect 3 0 83 0;
#X connect 4 0 60 0;
#X connect 5 0 26 0;
#X connect 6 0 7 1;
#X connect 7 0 82 0;
#X connect 8 0 28 0;
#X connect 10 0 11 1;
#X connect 11 0 84 0;
#X connect 12 0 29 0;
#X connect 14 0 15 1;
#X connect 15 0 85 0;
#X connect 17 0 30 0;
#X connect 18 0 19 1;
#X connect 19 0 86 0;
#X connect 20 0 31 0;
#X connect 22 0 23 1;
#X connect 23 0 87 0;
#X connect 24 0 32 0;
#X connect 26 0 4 0;
#X connect 26 1 61 0;
#X connect 26 2 68 0;
#X connect 26 3 72 0;
#X connect 26 4 76 0;
#X connect 26 5 79 0;
#X connect 27 0 65 0;
#X connect 27 1 2 0;
#X connect 27 2 83 1;
#X connect 28 0 64 0;
#X connect 28 1 6 0;
#X connect 28 2 82 1;
#X connect 29 0 69 0;
#X connect 29 1 10 0;
#X connect 29 2 84 1;
#X connect 30 0 73 0;
#X connect 30 1 14 0;
#X connect 30 2 85 1;
#X connect 31 0 80 0;
#X connect 31 1 18 0;
#X connect 31 2 86 1;
#X connect 32 0 81 0;
#X connect 32 1 22 0;
#X connect 32 2 87 1;
#X connect 33 0 40 0;
#X connect 34 0 36 0;
#X connect 35 0 0 0;
#X connect 35 1 65 1;
#X connect 35 2 34 1;
#X connect 36 1 53 0;
#X connect 37 0 39 0;
#X connect 38 0 8 0;
#X connect 38 1 64 1;
#X connect 38 2 37 1;
#X connect 39 1 54 0;
#X connect 40 0 34 0;
#X connect 40 1 37 0;
#X connect 40 2 41 0;
#X connect 40 3 44 0;
#X connect 40 4 47 0;
#X connect 40 5 50 0;
#X connect 41 0 43 0;
#X connect 42 0 12 0;
#X connect 42 1 69 1;
#X connect 42 2 41 1;
#X connect 43 1 55 0;
#X connect 44 0 46 0;
#X connect 45 0 17 0;
#X connect 45 1 73 1;
#X connect 45 2 44 1;
#X connect 46 1 56 0;
#X connect 47 0 49 0;
#X connect 48 0 20 0;
#X connect 48 1 80 1;
#X connect 48 2 47 1;
#X connect 49 1 57 0;
#X connect 50 0 52 0;
#X connect 51 0 24 0;
#X connect 51 1 81 1;
#X connect 51 2 50 1;
#X connect 52 1 58 0;
#X connect 53 0 35 0;
#X connect 54 0 38 0;
#X connect 55 0 42 0;
#X connect 56 0 45 0;
#X connect 57 0 48 0;
#X connect 58 0 51 0;
#X connect 59 0 35 0;
#X connect 60 0 59 0;
#X connect 61 0 63 0;
#X connect 62 0 38 0;
#X connect 63 0 62 0;
#X connect 64 0 7 0;
#X connect 65 0 3 0;
#X connect 66 0 42 0;
#X connect 67 0 66 0;
#X connect 68 0 67 0;
#X connect 69 0 11 0;
#X connect 70 0 45 0;
#X connect 71 0 70 0;
#X connect 72 0 71 0;
#X connect 73 0 15 0;
#X connect 74 0 48 0;
#X connect 75 0 74 0;
#X connect 76 0 75 0;
#X connect 77 0 51 0;
#X connect 78 0 77 0;
#X connect 79 0 78 0;
#X connect 80 0 19 0;
#X connect 81 0 23 0;
#X connect 82 0 9 0;
#X connect 83 0 1 0;
#X connect 84 0 13 0;
#X connect 85 0 16 0;
#X connect 86 0 21 0;
#X connect 87 0 25 0;
#X restore 131 578 pd agnostic-density;
#X msg 203 450 label \$1;
#X msg 203 412 new pattern;
#X obj 203 431 zexy/list2symbol;
#X obj 203 345 loadbang;
#X msg 1135 331 8 17;
#X obj 1029 331 pdmus/midi-learn;
#X obj 1002 310 t b f;
#X obj 1002 480 s \$0-save-state;
#X msg 956 439 9 17;
#X obj 850 439 pdmus/midi-learn;
#X obj 850 460 / 64;
#X obj 850 480 int;
#X obj 850 500 change;
#X obj 823 418 t b f;
#X obj 823 570 s \$0-save-state;
#X obj 1002 289 r \$0-learn-style;
#X obj 1029 456 s \$0-set-stylenumber;
#X obj 1029 435 change;
#X obj 823 396 r \$0-learn-new-pattern;
#X text 609 438 ORDER AMIGUITO!!;
#X obj 850 521 sel 1;
#X obj 850 545 s \$0-set-generate-drumz;
#X obj 297 150 s \$0-set-generate-drumz;
#X obj 203 482 s \$0-set-generate-drumz;
#X msg 230 391 color 13 2 10 \, size 24 \, label_pos 32 12 \, label_font
1 12;
#X obj 203 370 t b b;
#X obj 811 260 tabdump;
#X msg 842 213 set chpattern \, bang;
#X msg 826 194 set snarepattern \, bang;
#X msg 811 174 set kickpattern \, bang;
#X obj 811 281 s lock-pattern;
#X obj 811 62 r \$0-generate-drumz;
#X obj 823 107 r lock-instrument;
#X obj 811 131 f 0;
#N canvas 546 103 613 300 load 0;
#X obj 198 184 symbol;
#X msg 406 146 hiphop;
#X obj 105 62 sel 0 1 2 3 4 5;
#X obj 198 260 cyclone/coll \$0-knowledge;
#C restore;
#X obj 105 43 inlet style number;
#X obj 492 170 inlet order number;
#X obj 198 210 pack s f;
#X floatatom 492 194 5 0 0 0 - - -, f 5;
#X obj 409 262 print;
#X msg 198 241 read drumstyles/\$1_\$2;
#X msg 20 147 motown;
#X msg 65 147 jamesbrown;
#X msg 134 147 clyde1;
#X msg 180 147 funkyfresh;
#X msg 249 146 daftpunk;
#X msg 318 146 garagehouse;
#X connect 0 0 6 0;
#X connect 1 0 0 0;
#X connect 2 0 10 0;
#X connect 2 1 11 0;
#X connect 2 2 12 0;
#X connect 2 3 13 0;
#X connect 2 4 14 0;
#X connect 2 5 15 0;
#X connect 4 0 2 0;
#X connect 5 0 7 0;
#X connect 6 0 9 0;
#X connect 6 0 8 0;
#X connect 7 0 6 1;
#X connect 9 0 3 0;
#X connect 10 0 0 0;
#X connect 11 0 0 0;
#X connect 12 0 0 0;
#X connect 13 0 0 0;
#X connect 14 0 0 0;
#X connect 15 0 0 0;
#X restore 583 220 pd load a style to the cyclone/coll;
#X obj 556 173 t b f;
#X obj 556 153 r \$0-stylenumber;
#X obj 581 93 hradio 18 1 1 8 \$0-order nor empty 0 -8 0 10 -262144
-1 -1 2;
#X obj 556 239 s \$0-set-generate-drumz;
#X text 621 73 ORDER;
#X obj 658 153 r \$0-order;
#X obj 583 201 f;
#X obj 658 173 t b f;
#X obj 554 26 r order-letter;
#X obj 554 50 + 1;
#X text 608 60 **************;
#X text 555 130 *********************************;
#X text 798 20 to house harmonic filler!;
#X obj 811 84 delay 100;
#X obj 811 151 sel 0 1 2 3;
#X msg 858 233 set ohpattern \, bang;
#X obj 554 71 t b f;
#X obj 554 114 s \$0-generate-drumz;
#X obj 1029 351 maxlib/scale 0 127 0 5;
#X obj 1029 373 - 5;
#X obj 1029 394 abs;
#X obj 1029 415 int;
#X msg 1120 102 10 17;
#X obj 1014 102 pdmus/midi-learn;
#X obj 987 81 t b f;
#X obj 987 251 s \$0-save-state;
#X obj 1014 206 change;
#X obj 1014 165 abs;
#X obj 1014 186 int;
#X obj 987 60 r \$0-learn-mode;
#X obj 1014 144 - 2;
#X obj 1014 124 maxlib/scale 0 127 0 2;
#X obj 1014 228 s set-order-letter;
#X msg 543 309 menusave;
#X obj 543 333 s pd-Dr.Markov.pd;
#X obj 543 287 r \$0-save-state;
#X connect 0 0 44 0;
#X connect 0 1 2 0;
#X connect 0 2 45 0;
#X connect 2 0 1 0;
#X connect 4 0 5 0;
#X connect 7 0 6 0;
#X connect 8 0 9 0;
#X connect 12 0 14 0;
#X connect 13 0 12 0;
#X connect 15 0 10 0;
#X connect 16 0 17 0;
#X connect 18 0 19 0;
#X connect 19 0 11 0;
#X connect 20 0 13 0;
#X connect 24 0 68 0;
#X connect 24 1 23 0;
#X connect 25 0 0 0;
#X connect 26 0 24 0;
#X connect 27 0 45 1;
#X connect 28 0 45 1;
#X connect 29 0 45 1;
#X connect 30 0 45 1;
#X connect 31 0 45 1;
#X connect 32 0 45 1;
#X connect 33 0 4 0;
#X connect 35 0 7 0;
#X connect 36 0 8 0;
#X connect 37 0 22 0;
#X connect 38 0 27 0;
#X connect 39 0 28 0;
#X connect 40 0 29 0;
#X connect 41 0 30 0;
#X connect 42 0 31 0;
#X connect 43 0 32 0;
#X connect 46 0 69 0;
#X connect 47 0 48 0;
#X connect 48 0 46 0;
#X connect 49 0 71 0;
#X connect 50 0 51 1;
#X connect 51 0 99 0;
#X connect 51 1 50 0;
#X connect 52 0 53 0;
#X connect 52 1 51 0;
#X connect 54 0 55 1;
#X connect 55 0 56 0;
#X connect 55 1 54 0;
#X connect 56 0 57 0;
#X connect 57 0 58 0;
#X connect 58 0 66 0;
#X connect 59 0 60 0;
#X connect 59 1 55 0;
#X connect 61 0 52 0;
#X connect 63 0 62 0;
#X connect 64 0 59 0;
#X connect 66 0 67 0;
#X connect 70 0 69 0;
#X connect 71 0 47 0;
#X connect 71 1 70 0;
#X connect 72 0 76 0;
#X connect 73 0 72 0;
#X connect 74 0 72 0;
#X connect 75 0 72 0;
#X connect 77 0 94 0;
#X connect 78 0 79 0;
#X connect 79 0 95 0;
#X connect 81 0 84 0;
#X connect 81 1 87 0;
#X connect 82 0 81 0;
#X connect 86 0 88 0;
#X connect 87 0 80 0;
#X connect 88 0 87 0;
#X connect 88 1 80 1;
#X connect 89 0 90 0;
#X connect 90 0 97 0;
#X connect 94 0 79 0;
#X connect 95 0 75 0;
#X connect 95 1 74 0;
#X connect 95 2 73 0;
#X connect 95 3 96 0;
#X connect 96 0 72 0;
#X connect 97 0 98 0;
#X connect 97 1 83 0;
#X connect 99 0 100 0;
#X connect 100 0 101 0;
#X connect 101 0 102 0;
#X connect 102 0 63 0;
#X connect 103 0 104 1;
#X connect 104 0 112 0;
#X connect 104 1 103 0;
#X connect 105 0 106 0;
#X connect 105 1 104 0;
#X connect 107 0 113 0;
#X connect 108 0 109 0;
#X connect 109 0 107 0;
#X connect 110 0 105 0;
#X connect 111 0 108 0;
#X connect 112 0 111 0;
#X connect 114 0 115 0;
#X connect 116 0 114 0;
#X restore 353 245 pd markov-magic;
#X connect 0 0 1 0;
#X connect 1 0 4 0;
#X connect 2 0 0 0;
#X connect 2 1 1 1;
#X connect 3 0 2 0;
#X connect 5 0 17 0;
#X connect 5 0 20 0;
#X connect 5 0 8 0;
#X connect 5 0 19 0;
#X connect 6 0 5 0;
#X connect 7 0 6 0;
#X connect 7 0 18 0;
#X connect 9 0 10 1;
#X connect 10 0 9 0;
#X connect 10 0 14 0;
#X connect 10 0 15 0;
#X connect 11 0 10 1;
#X connect 12 0 13 0;
#X connect 12 1 10 0;
#X connect 13 0 11 0;
#X connect 15 0 11 0;
#X connect 18 0 3 0;
#X restore 819 2 pd patch;
#X obj 1 2 cnv 15 870 480 empty \$0-title MARKOV DRUMS 20 18 0 20 -128992
-258699 0;
#X obj 367 274 vsl 24 180 -1 1 0 1 param_comm-ui comm COMMONNESS 0
-34 0 20 -66577 -258113 -228856 15300 0;
#X obj 408 351 bng 24 250 50 0 zero-dws set-zero-dws empty 17 7 0 10
-66577 -258113 -258113;
#X obj 712 274 vsl 24 180 -1 1 0 1 param_ag-cp ag-cp-in Cp 5 -12 1
12 -66577 -258113 -228856 8800 0;
#X obj 669 274 vsl 24 180 -1 1 0 1 param_ag-oh ag-oh-in Oh 5 -12 1
12 -66577 -258113 -228856 8700 0;
#X obj 626 274 vsl 24 180 -1 1 0 1 param_ag-ch ag-ch-in Ch 5 -12 1
12 -66577 -258113 -228856 13500 0;
#X obj 583 274 vsl 24 180 -1 1 0 1 param_ag-snare ag-snare-in S 7 -12
1 12 -66577 -258113 -228856 8950 0;
#X obj 540 274 vsl 24 180 -1 1 0 1 param_ag-kick ag-kick-in K 8 -12
1 12 -66577 -258113 -228856 8950 0;
#X obj 755 274 vsl 24 180 -1 1 0 1 param_ag-rs ag-rs-in Rs 5 -12 1
12 -66577 -258113 -228856 11600 0;
#X obj 798 351 bng 24 250 50 0 zero-ag set-zero-ag empty 17 7 0 10
-66577 -258113 -258113;
#X obj 81 183 hradio 24 1 0 32 nos numberz32 empty 0 -8 0 10 -128992
-258113 -1 19;
#X obj 538 227 cnv 15 100 25 empty empty DENSITY 0 12 0 20 -128992
-228856 0;
#X obj 21 63 onset32_2 ohihat;
#X obj 530 449 bng 8 250 50 0 \$0-learn-density-k --- empty 17 7 0
10 -258113 -1 -1;
#X obj 573 449 bng 8 250 50 0 \$0-learn-density-s --- empty 17 7 0
10 -258113 -1 -1;
#X obj 616 449 bng 8 250 50 0 \$0-learn-density-ch --- empty 17 7 0
10 -258113 -1 -1;
#X obj 659 449 bng 8 250 50 0 \$0-learn-density-oh --- empty 17 7 0
10 -258113 -1 -1;
#X obj 702 449 bng 8 250 50 0 \$0-learn-density-cp --- empty 17 7 0
10 -258113 -1 -1;
#X obj 745 449 bng 8 250 50 0 \$0-learn-density-rs --- empty 17 7 0
10 -258113 -1 -1;
#X obj 788 367 bng 8 250 50 0 \$0-learn-density-center --- empty 17
7 0 10 -258113 -1 -1;
#X obj 398 367 bng 8 250 50 0 \$0-learn-commonness-center --- empty
17 7 0 10 -258113 -1 -1;
#X obj 357 449 bng 8 250 50 0 \$0-learn-commonness --- empty 17 7 0
10 -258113 -1 -1;
#X obj 21 39 onset32_2 rimshot;
#X obj 21 87 onset32_2 clap;
#X obj 21 111 onset32_2 chihat;
#X obj 21 135 onset32_2 snare;
#X obj 21 159 onset32_2 kick;
#X obj 181 221 cnv 15 100 260 empty empty STYLE 18 20 0 20 -128992
-228856 0;
#X obj 232 271 cnv 15 90 20 empty empty motown 0 12 1 12 -128992 -228856
0;
#X obj 232 294 cnv 15 90 20 empty empty jamesBrown 0 12 1 12 -128992
-228856 0;
#X obj 232 319 cnv 15 90 20 empty empty clyde1 0 12 1 12 -128992 -228856
0;
#X obj 232 344 cnv 15 90 20 empty empty funkyfresh 0 12 1 12 -128992
-228856 0;
#X obj 231 369 cnv 15 90 20 empty empty daftpunk 0 12 1 12 -128992
-228856 0;
#X obj 231 393 cnv 15 90 20 empty empty garageHouse 0 12 1 12 -128992
-228856 0;
#X obj 200 270 vradio 24 1 1 6 \$0-stylenumber \$0-set-stylenumber
empty 0 -8 0 10 -66577 -258113 -1 0;
#X obj 189 449 bng 8 250 50 0 \$0-learn-new-pattern --- empty 17 7
0 10 -258113 -1 -1;
#X obj 189 406 bng 8 250 50 0 \$0-learn-style --- empty 17 7 0 10 -258113
-1 -1;
#X obj 200 458 s \$0-generate-drumz;
#X obj 200 433 bng 24 250 50 0 empty empty new pattern 32 12 1 12 -258699
-66577 -233017;
#X obj 93 274 vradio 24 1 0 3 order-letter set-order-letter MODE 0
-34 0 20 -66577 -258113 -228856 1;
#X obj 83 338 bng 8 250 50 0 \$0-learn-mode --- empty 17 7 0 10 -258113
-1 -1;
#X obj 199 415 r \$0-set-generate-drumz;
#X obj 196 458 cnv 15 150 17 empty empty empty 20 12 0 14 -128992 -66577
0;
#X obj 196 415 cnv 15 150 17 empty empty empty 20 12 0 14 -128992 -66577
0;
#X obj 122 276 cnv 15 20 20 empty empty A 0 12 1 12 -128992 -228856
0;
#X obj 122 300 cnv 15 20 20 empty empty B 0 12 1 12 -128992 -228856
0;
#X obj 122 326 cnv 15 20 20 empty empty C 0 12 1 12 -128992 -228856
0;
#X connect 39 0 38 0;
#X connect 42 0 39 0;
